<?xml version="1.0" encoding="UTF-8" standalone="no"?>
<!DOCTYPE svg PUBLIC "-//W3C//DTD SVG 1.1//EN"
 "http://www.w3.org/Graphics/SVG/1.1/DTD/svg11.dtd">
<!-- Generated by graphviz version 11.0.0 (20240428.1522)
 -->
<!-- Pages: 1 -->
<svg width="2076pt" height="176pt"
 viewBox="0.00 0.00 2075.76 175.57" xmlns="http://www.w3.org/2000/svg" xmlns:xlink="http://www.w3.org/1999/xlink">
<g id="graph0" class="graph" transform="scale(1 1) rotate(0) translate(4 171.57)">
<polygon fill="white" stroke="none" points="-4,4 -4,-171.57 2071.76,-171.57 2071.76,4 -4,4"/>
<!-- &#45;1 -->
<g id="node1" class="node">
<title>&#45;1</title>
<polygon fill="lightgray" stroke="black" points="664.51,-98.28 641.01,-98.28 641.01,-79.78 664.51,-79.78 664.51,-98.28"/>
<text text-anchor="middle" x="652.76" y="-85.73" font-family="Times,serif" font-size="9.00">&#45;1</text>
</g>
<!-- 0 -->
<g id="node42" class="node">
<title>0</title>
<ellipse fill="lightblue" stroke="black" cx="447.76" cy="-14.5" rx="14.5" ry="14.5"/>
<text text-anchor="middle" x="447.76" y="-11.2" font-family="Times,serif" font-size="9.00">0</text>
</g>
<!-- &#45;1&#45;&gt;0 -->
<g id="edge29" class="edge">
<title>&#45;1&#45;&gt;0</title>
<path fill="none" stroke="red" stroke-width="0.19" stroke-dasharray="1,5" d="M647.05,-79.67C643.26,-74.72 637.86,-68.71 631.76,-64.99 580.34,-33.66 509.02,-21.86 472.09,-17.66"/>
<polygon fill="red" stroke="red" stroke-width="0.19" points="472.81,-14.21 462.5,-16.65 472.08,-21.17 472.81,-14.21"/>
</g>
<!-- 1 -->
<g id="node43" class="node">
<title>1</title>
<ellipse fill="lightblue" stroke="black" cx="834.76" cy="-14.5" rx="14.5" ry="14.5"/>
<text text-anchor="middle" x="834.76" y="-11.2" font-family="Times,serif" font-size="9.00">1</text>
</g>
<!-- &#45;1&#45;&gt;1 -->
<g id="edge16" class="edge">
<title>&#45;1&#45;&gt;1</title>
<path fill="none" stroke="red" stroke-width="0.23" d="M658.88,-79.29C662.66,-74.46 667.91,-68.7 673.76,-64.99 717.26,-37.42 777.09,-24.36 810.21,-18.89"/>
<polygon fill="red" stroke="red" stroke-width="0.23" points="810.67,-22.37 820.01,-17.37 809.59,-15.45 810.67,-22.37"/>
</g>
<!-- 2 -->
<g id="node44" class="node">
<title>2</title>
<ellipse fill="lightblue" stroke="black" cx="1404.76" cy="-14.5" rx="14.5" ry="14.5"/>
<text text-anchor="middle" x="1404.76" y="-11.2" font-family="Times,serif" font-size="9.00">2</text>
</g>
<!-- &#45;1&#45;&gt;2 -->
<g id="edge57" class="edge">
<title>&#45;1&#45;&gt;2</title>
<path fill="none" stroke="red" stroke-width="0.43" d="M657.91,-79.7C661.62,-74.49 667.13,-68.19 673.76,-64.99 738.48,-33.76 1258.46,-19.1 1379.6,-16.09"/>
<polygon fill="red" stroke="red" stroke-width="0.43" points="1379.49,-19.59 1389.4,-15.85 1379.32,-12.6 1379.49,-19.59"/>
</g>
<!-- &#45;2 -->
<g id="node2" class="node">
<title>&#45;2</title>
<polygon fill="lightgray" stroke="black" points="982.51,-98.28 959.01,-98.28 959.01,-79.78 982.51,-79.78 982.51,-98.28"/>
<text text-anchor="middle" x="970.76" y="-85.73" font-family="Times,serif" font-size="9.00">&#45;2</text>
</g>
<!-- &#45;2&#45;&gt;1 -->
<g id="edge25" class="edge">
<title>&#45;2&#45;&gt;1</title>
<path fill="none" stroke="green" stroke-width="0.39" d="M964.5,-79.53C960.66,-74.77 955.41,-69.01 949.76,-64.99 921.24,-44.67 883.05,-30.32 858.68,-22.47"/>
<polygon fill="green" stroke="green" stroke-width="0.39" points="859.99,-19.22 849.4,-19.6 857.92,-25.9 859.99,-19.22"/>
</g>
<!-- &#45;3 -->
<g id="node3" class="node">
<title>&#45;3</title>
<polygon fill="lightgray" stroke="black" points="1470.51,-98.28 1447.01,-98.28 1447.01,-79.78 1470.51,-79.78 1470.51,-98.28"/>
<text text-anchor="middle" x="1458.76" y="-85.73" font-family="Times,serif" font-size="9.00">&#45;3</text>
</g>
<!-- &#45;3&#45;&gt;2 -->
<g id="edge27" class="edge">
<title>&#45;3&#45;&gt;2</title>
<path fill="none" stroke="green" stroke-width="0.33" d="M1452.36,-79.43C1444.26,-68.55 1430.08,-49.5 1419.3,-35.02"/>
<polygon fill="green" stroke="green" stroke-width="0.33" points="1422.19,-33.04 1413.41,-27.11 1416.57,-37.22 1422.19,-33.04"/>
</g>
<!-- &#45;4 -->
<g id="node4" class="node">
<title>&#45;4</title>
<polygon fill="lightgray" stroke="black" points="1024.51,-98.28 1001.01,-98.28 1001.01,-79.78 1024.51,-79.78 1024.51,-98.28"/>
<text text-anchor="middle" x="1012.76" y="-85.73" font-family="Times,serif" font-size="9.00">&#45;4</text>
</g>
<!-- &#45;4&#45;&gt;1 -->
<g id="edge30" class="edge">
<title>&#45;4&#45;&gt;1</title>
<path fill="none" stroke="green" stroke-width="0.36" d="M1006.64,-79.31C1002.85,-74.48 997.6,-68.72 991.76,-64.99 949.75,-38.15 892.1,-24.91 859.63,-19.19"/>
<polygon fill="green" stroke="green" stroke-width="0.36" points="860.23,-15.74 849.79,-17.56 859.08,-22.65 860.23,-15.74"/>
</g>
<!-- &#45;5 -->
<g id="node5" class="node">
<title>&#45;5</title>
<polygon fill="lightgray" stroke="black" points="346.51,-98.28 323.01,-98.28 323.01,-79.78 346.51,-79.78 346.51,-98.28"/>
<text text-anchor="middle" x="334.76" y="-85.73" font-family="Times,serif" font-size="9.00">&#45;5</text>
</g>
<!-- &#45;5&#45;&gt;0 -->
<g id="edge6" class="edge">
<title>&#45;5&#45;&gt;0</title>
<path fill="none" stroke="green" stroke-width="1.1" stroke-dasharray="1,5" d="M341.17,-79.71C345.05,-75.01 350.3,-69.25 355.76,-64.99 376.94,-48.47 404.41,-34.5 423.8,-25.65"/>
<polygon fill="green" stroke="green" stroke-width="1.1" points="425.18,-28.87 432.91,-21.62 422.35,-22.47 425.18,-28.87"/>
</g>
<!-- &#45;5&#45;&gt;1 -->
<g id="edge7" class="edge">
<title>&#45;5&#45;&gt;1</title>
<path fill="none" stroke="green" stroke-width="0.31" d="M340.28,-79.32C344,-74.24 349.39,-68.21 355.76,-64.99 436.48,-24.26 722.73,-17.02 809.59,-15.76"/>
<polygon fill="green" stroke="green" stroke-width="0.31" points="809.62,-19.26 819.58,-15.63 809.53,-12.26 809.62,-19.26"/>
</g>
<!-- &#45;6 -->
<g id="node6" class="node">
<title>&#45;6</title>
<polygon fill="lightgray" stroke="black" points="228.51,-98.28 205.01,-98.28 205.01,-79.78 228.51,-79.78 228.51,-98.28"/>
<text text-anchor="middle" x="216.76" y="-85.73" font-family="Times,serif" font-size="9.00">&#45;6</text>
</g>
<!-- &#45;6&#45;&gt;0 -->
<g id="edge8" class="edge">
<title>&#45;6&#45;&gt;0</title>
<path fill="none" stroke="red" stroke-width="0.15" stroke-dasharray="1,5" d="M224.19,-79.64C229.01,-74.69 235.71,-68.68 242.76,-64.99 302.69,-33.71 382.82,-21.81 422.83,-17.6"/>
<polygon fill="red" stroke="red" stroke-width="0.15" points="423.16,-21.08 432.77,-16.63 422.48,-14.12 423.16,-21.08"/>
</g>
<!-- &#45;7 -->
<g id="node7" class="node">
<title>&#45;7</title>
<polygon fill="lightgray" stroke="black" points="1512.51,-98.28 1489.01,-98.28 1489.01,-79.78 1512.51,-79.78 1512.51,-98.28"/>
<text text-anchor="middle" x="1500.76" y="-85.73" font-family="Times,serif" font-size="9.00">&#45;7</text>
</g>
<!-- &#45;7&#45;&gt;2 -->
<g id="edge17" class="edge">
<title>&#45;7&#45;&gt;2</title>
<path fill="none" stroke="green" stroke-width="0.92" d="M1493.84,-79.45C1489.95,-74.9 1484.86,-69.35 1479.76,-64.99 1463.29,-50.9 1442.61,-37.53 1427.14,-28.24"/>
<polygon fill="green" stroke="green" stroke-width="0.92" points="1428.97,-25.26 1418.57,-23.21 1425.42,-31.29 1428.97,-25.26"/>
</g>
<!-- &#45;8 -->
<g id="node8" class="node">
<title>&#45;8</title>
<polygon fill="lightgray" stroke="black" points="1210.51,-98.28 1187.01,-98.28 1187.01,-79.78 1210.51,-79.78 1210.51,-98.28"/>
<text text-anchor="middle" x="1198.76" y="-85.73" font-family="Times,serif" font-size="9.00">&#45;8</text>
</g>
<!-- &#45;8&#45;&gt;1 -->
<g id="edge13" class="edge">
<title>&#45;8&#45;&gt;1</title>
<path fill="none" stroke="green" stroke-width="0.51" d="M1191.45,-79.41C1186.67,-74.37 1179.98,-68.35 1172.76,-64.99 1116.85,-38.99 928.71,-22.57 860.09,-17.32"/>
<polygon fill="green" stroke="green" stroke-width="0.51" points="860.43,-13.84 850.2,-16.58 859.91,-20.82 860.43,-13.84"/>
</g>
<!-- &#45;8&#45;&gt;2 -->
<g id="edge24" class="edge">
<title>&#45;8&#45;&gt;2</title>
<path fill="none" stroke="red" stroke-width="0.21" d="M1204.48,-79.67C1208.27,-74.71 1213.66,-68.7 1219.76,-64.99 1271.34,-33.61 1342.82,-21.85 1380.02,-17.66"/>
<polygon fill="red" stroke="red" stroke-width="0.21" points="1380.08,-21.17 1389.67,-16.66 1379.36,-14.21 1380.08,-21.17"/>
</g>
<!-- &#45;9 -->
<g id="node9" class="node">
<title>&#45;9</title>
<polygon fill="lightgray" stroke="black" points="1929.51,-167.57 1906.01,-167.57 1906.01,-149.07 1929.51,-149.07 1929.51,-167.57"/>
<text text-anchor="middle" x="1917.76" y="-155.02" font-family="Times,serif" font-size="9.00">&#45;9</text>
</g>
<!-- &#45;10 -->
<g id="node10" class="node">
<title>&#45;10</title>
<polygon fill="lightgray" stroke="black" points="1505.76,-167.57 1477.76,-167.57 1477.76,-149.07 1505.76,-149.07 1505.76,-167.57"/>
<text text-anchor="middle" x="1491.76" y="-155.02" font-family="Times,serif" font-size="9.00">&#45;10</text>
</g>
<!-- &#45;10&#45;&gt;0 -->
<g id="edge5" class="edge">
<title>&#45;10&#45;&gt;0</title>
<path fill="none" stroke="green" stroke-width="0.46" stroke-dasharray="1,5" d="M1477.46,-156.94C1342.1,-153.27 291.69,-124.41 280.76,-113.07 265.93,-97.69 267.98,-82.12 280.76,-64.99 297.83,-42.13 380.47,-26.08 422.75,-19.22"/>
<polygon fill="green" stroke="green" stroke-width="0.46" points="423.24,-22.68 432.58,-17.68 422.16,-15.77 423.24,-22.68"/>
</g>
<!-- 748 -->
<g id="node46" class="node">
<title>748</title>
<ellipse fill="white" stroke="black" cx="1873.76" cy="-89.03" rx="20.86" ry="20.86"/>
<text text-anchor="middle" x="1873.76" y="-85.73" font-family="Times,serif" font-size="9.00">748</text>
</g>
<!-- &#45;10&#45;&gt;748 -->
<g id="edge70" class="edge">
<title>&#45;10&#45;&gt;748</title>
<path fill="none" stroke="red" stroke-width="0.95" d="M1506.17,-156.52C1564.22,-153.13 1780.82,-138.95 1843.76,-113.07 1845.77,-112.25 1847.75,-111.26 1849.69,-110.15"/>
<polygon fill="red" stroke="red" stroke-width="0.95" points="1851.35,-113.25 1857.67,-104.75 1847.43,-107.46 1851.35,-113.25"/>
</g>
<!-- &#45;11 -->
<g id="node11" class="node">
<title>&#45;11</title>
<polygon fill="lightgray" stroke="black" points="1070.76,-98.28 1042.76,-98.28 1042.76,-79.78 1070.76,-79.78 1070.76,-98.28"/>
<text text-anchor="middle" x="1056.76" y="-85.73" font-family="Times,serif" font-size="9.00">&#45;11</text>
</g>
<!-- &#45;11&#45;&gt;1 -->
<g id="edge18" class="edge">
<title>&#45;11&#45;&gt;1</title>
<path fill="none" stroke="green" stroke-width="0.26" d="M1050.37,-79.64C1046.17,-74.68 1040.26,-68.67 1033.76,-64.99 976.82,-32.76 899.07,-21.3 859.74,-17.4"/>
<polygon fill="green" stroke="green" stroke-width="0.26" points="860.16,-13.92 849.88,-16.5 859.53,-20.89 860.16,-13.92"/>
</g>
<!-- &#45;12 -->
<g id="node12" class="node">
<title>&#45;12</title>
<polygon fill="lightgray" stroke="black" points="1147.76,-167.57 1119.76,-167.57 1119.76,-149.07 1147.76,-149.07 1147.76,-167.57"/>
<text text-anchor="middle" x="1133.76" y="-155.02" font-family="Times,serif" font-size="9.00">&#45;12</text>
</g>
<!-- &#45;12&#45;&gt;1 -->
<g id="edge41" class="edge">
<title>&#45;12&#45;&gt;1</title>
<path fill="none" stroke="green" stroke-width="0.31" stroke-dasharray="1,5" d="M1137.84,-148.71C1145.66,-130.78 1160.27,-89.09 1139.76,-64.99 1103.78,-22.7 926.53,-16.44 860.03,-15.59"/>
<polygon fill="green" stroke="green" stroke-width="0.31" points="860.15,-12.09 850.12,-15.5 860.08,-19.09 860.15,-12.09"/>
</g>
<!-- 963 -->
<g id="node45" class="node">
<title>963</title>
<ellipse fill="white" stroke="black" cx="1109.76" cy="-89.03" rx="20.86" ry="20.86"/>
<text text-anchor="middle" x="1109.76" y="-85.73" font-family="Times,serif" font-size="9.00">963</text>
</g>
<!-- &#45;12&#45;&gt;963 -->
<g id="edge66" class="edge">
<title>&#45;12&#45;&gt;963</title>
<path fill="none" stroke="red" stroke-width="0.76" d="M1130.72,-148.8C1128.08,-141.38 1124.07,-130.15 1120.27,-119.5"/>
<polygon fill="red" stroke="red" stroke-width="0.76" points="1123.64,-118.52 1116.98,-110.28 1117.05,-120.87 1123.64,-118.52"/>
</g>
<!-- &#45;13 -->
<g id="node13" class="node">
<title>&#45;13</title>
<polygon fill="lightgray" stroke="black" points="710.76,-98.28 682.76,-98.28 682.76,-79.78 710.76,-79.78 710.76,-98.28"/>
<text text-anchor="middle" x="696.76" y="-85.73" font-family="Times,serif" font-size="9.00">&#45;13</text>
</g>
<!-- &#45;13&#45;&gt;0 -->
<g id="edge43" class="edge">
<title>&#45;13&#45;&gt;0</title>
<path fill="none" stroke="green" stroke-width="0.15" stroke-dasharray="1,5" d="M690.41,-79.57C686.22,-74.59 680.31,-68.57 673.76,-64.99 607.32,-28.61 516.13,-18.97 472.71,-16.42"/>
<polygon fill="green" stroke="green" stroke-width="0.15" points="472.9,-12.92 462.73,-15.91 472.54,-19.91 472.9,-12.92"/>
</g>
<!-- &#45;13&#45;&gt;2 -->
<g id="edge10" class="edge">
<title>&#45;13&#45;&gt;2</title>
<path fill="none" stroke="red" stroke-width="0.13" d="M702.58,-79.7C706.72,-74.49 712.77,-68.19 719.76,-64.99 780.81,-37.05 1264.69,-19.96 1380.11,-16.26"/>
<polygon fill="red" stroke="red" stroke-width="0.13" points="1380.01,-19.76 1389.9,-15.95 1379.79,-12.77 1380.01,-19.76"/>
</g>
<!-- &#45;14 -->
<g id="node14" class="node">
<title>&#45;14</title>
<polygon fill="lightgray" stroke="black" points="528.76,-167.57 500.76,-167.57 500.76,-149.07 528.76,-149.07 528.76,-167.57"/>
<text text-anchor="middle" x="514.76" y="-155.02" font-family="Times,serif" font-size="9.00">&#45;14</text>
</g>
<!-- &#45;14&#45;&gt;0 -->
<g id="edge42" class="edge">
<title>&#45;14&#45;&gt;0</title>
<path fill="none" stroke="green" stroke-width="0.25" stroke-dasharray="1,5" d="M500.52,-157.19C422.05,-156.32 44.77,-150.2 10.76,-113.07 -3.67,-97.32 -3.47,-80.93 10.76,-64.99 38.44,-34 335.04,-19.93 423.19,-16.41"/>
<polygon fill="green" stroke="green" stroke-width="0.25" points="423.09,-19.91 432.95,-16.03 422.82,-12.92 423.09,-19.91"/>
</g>
<!-- 599 -->
<g id="node49" class="node">
<title>599</title>
<ellipse fill="white" stroke="black" cx="1341.76" cy="-89.03" rx="20.86" ry="20.86"/>
<text text-anchor="middle" x="1341.76" y="-85.73" font-family="Times,serif" font-size="9.00">599</text>
</g>
<!-- &#45;14&#45;&gt;599 -->
<g id="edge63" class="edge">
<title>&#45;14&#45;&gt;599</title>
<path fill="none" stroke="red" stroke-width="1.07" d="M529.02,-154.06C537.35,-152.29 548.1,-150.23 557.76,-149.07 724.33,-129.22 1154.26,-170.8 1311.76,-113.07 1313.63,-112.39 1315.47,-111.55 1317.27,-110.59"/>
<polygon fill="red" stroke="red" stroke-width="1.07" points="1319.19,-113.52 1325.62,-105.1 1315.34,-107.67 1319.19,-113.52"/>
</g>
<!-- &#45;15 -->
<g id="node15" class="node">
<title>&#45;15</title>
<polygon fill="lightgray" stroke="black" points="392.76,-98.28 364.76,-98.28 364.76,-79.78 392.76,-79.78 392.76,-98.28"/>
<text text-anchor="middle" x="378.76" y="-85.73" font-family="Times,serif" font-size="9.00">&#45;15</text>
</g>
<!-- &#45;15&#45;&gt;0 -->
<g id="edge3" class="edge">
<title>&#45;15&#45;&gt;0</title>
<path fill="none" stroke="green" stroke-width="0.4" d="M386.95,-79.43C397.79,-68.03 417.17,-47.65 431.15,-32.96"/>
<polygon fill="green" stroke="green" stroke-width="0.4" points="433.49,-35.58 437.85,-25.92 428.42,-30.76 433.49,-35.58"/>
</g>
<!-- &#45;15&#45;&gt;1 -->
<g id="edge14" class="edge">
<title>&#45;15&#45;&gt;1</title>
<path fill="none" stroke="red" stroke-width="0.56" stroke-dasharray="1,5" d="M385,-79.34C389.14,-74.26 395.05,-68.24 401.76,-64.99 474.65,-29.78 728.2,-18.85 809.48,-16.21"/>
<polygon fill="red" stroke="red" stroke-width="0.56" points="809.44,-19.72 819.33,-15.91 809.23,-12.72 809.44,-19.72"/>
</g>
<!-- &#45;16 -->
<g id="node16" class="node">
<title>&#45;16</title>
<polygon fill="lightgray" stroke="black" points="1558.76,-98.28 1530.76,-98.28 1530.76,-79.78 1558.76,-79.78 1558.76,-98.28"/>
<text text-anchor="middle" x="1544.76" y="-85.73" font-family="Times,serif" font-size="9.00">&#45;16</text>
</g>
<!-- &#45;16&#45;&gt;2 -->
<g id="edge31" class="edge">
<title>&#45;16&#45;&gt;2</title>
<path fill="none" stroke="green" stroke-width="0.24" stroke-dasharray="1,5" d="M1537.76,-79.55C1533.51,-74.8 1527.76,-69.04 1521.76,-64.99 1492,-44.92 1452.79,-30.37 1428.18,-22.43"/>
<polygon fill="green" stroke="green" stroke-width="0.24" points="1429.53,-19.18 1418.94,-19.54 1427.44,-25.86 1429.53,-19.18"/>
</g>
<!-- &#45;17 -->
<g id="node17" class="node">
<title>&#45;17</title>
<polygon fill="lightgray" stroke="black" points="1604.76,-98.28 1576.76,-98.28 1576.76,-79.78 1604.76,-79.78 1604.76,-98.28"/>
<text text-anchor="middle" x="1590.76" y="-85.73" font-family="Times,serif" font-size="9.00">&#45;17</text>
</g>
<!-- &#45;17&#45;&gt;2 -->
<g id="edge28" class="edge">
<title>&#45;17&#45;&gt;2</title>
<path fill="none" stroke="green" stroke-width="0.13" d="M1583.92,-79.3C1579.72,-74.47 1573.97,-68.71 1567.76,-64.99 1522.92,-38.07 1462.24,-24.73 1429.01,-19.04"/>
<polygon fill="green" stroke="green" stroke-width="0.13" points="1429.86,-15.64 1419.43,-17.49 1428.74,-22.55 1429.86,-15.64"/>
</g>
<!-- &#45;18 -->
<g id="node18" class="node">
<title>&#45;18</title>
<polygon fill="lightgray" stroke="black" points="438.76,-98.28 410.76,-98.28 410.76,-79.78 438.76,-79.78 438.76,-98.28"/>
<text text-anchor="middle" x="424.76" y="-85.73" font-family="Times,serif" font-size="9.00">&#45;18</text>
</g>
<!-- &#45;18&#45;&gt;0 -->
<g id="edge37" class="edge">
<title>&#45;18&#45;&gt;0</title>
<path fill="none" stroke="red" stroke-width="0.12" d="M427.49,-79.43C430.69,-69.34 436.12,-52.23 440.55,-38.24"/>
<polygon fill="red" stroke="red" stroke-width="0.12" points="443.82,-39.53 443.5,-28.94 437.14,-37.41 443.82,-39.53"/>
</g>
<!-- &#45;18&#45;&gt;1 -->
<g id="edge21" class="edge">
<title>&#45;18&#45;&gt;1</title>
<path fill="none" stroke="green" stroke-width="0.36" d="M431.01,-79.37C435.16,-74.31 441.07,-68.28 447.76,-64.99 512.09,-33.38 734.55,-20.21 809.72,-16.59"/>
<polygon fill="green" stroke="green" stroke-width="0.36" points="809.72,-20.1 819.54,-16.13 809.39,-13.1 809.72,-20.1"/>
</g>
<!-- &#45;19 -->
<g id="node19" class="node">
<title>&#45;19</title>
<polygon fill="lightgray" stroke="black" points="594.76,-167.57 566.76,-167.57 566.76,-149.07 594.76,-149.07 594.76,-167.57"/>
<text text-anchor="middle" x="580.76" y="-155.02" font-family="Times,serif" font-size="9.00">&#45;19</text>
</g>
<!-- &#45;19&#45;&gt;0 -->
<g id="edge47" class="edge">
<title>&#45;19&#45;&gt;0</title>
<path fill="none" stroke="red" stroke-width="0.13" stroke-dasharray="1,5" d="M566.5,-154.15C558.16,-152.41 547.41,-150.35 537.76,-149.07 483.2,-141.88 81.24,-153.38 43.76,-113.07 29.21,-97.42 29.6,-80.99 43.76,-64.99 69.03,-36.44 338.81,-20.85 422.89,-16.66"/>
<polygon fill="red" stroke="red" stroke-width="0.13" points="423.04,-20.16 432.86,-16.18 422.7,-13.17 423.04,-20.16"/>
</g>
<!-- 944 -->
<g id="node47" class="node">
<title>944</title>
<ellipse fill="white" stroke="black" cx="73.76" cy="-89.03" rx="20.86" ry="20.86"/>
<text text-anchor="middle" x="73.76" y="-85.73" font-family="Times,serif" font-size="9.00">944</text>
</g>
<!-- &#45;19&#45;&gt;944 -->
<g id="edge64" class="edge">
<title>&#45;19&#45;&gt;944</title>
<path fill="none" stroke="red" stroke-width="0.19" d="M566.49,-154.19C558.15,-152.46 547.4,-150.4 537.76,-149.07 346,-122.8 284.3,-182.86 103.76,-113.07 101.41,-112.16 99.08,-111 96.83,-109.69"/>
<polygon fill="red" stroke="red" stroke-width="0.19" points="99.08,-106.99 88.84,-104.25 95.13,-112.78 99.08,-106.99"/>
</g>
<!-- 1200 -->
<g id="node48" class="node">
<title>1200</title>
<ellipse fill="white" stroke="black" cx="1404.76" cy="-89.03" rx="24.04" ry="24.04"/>
<text text-anchor="middle" x="1404.76" y="-85.73" font-family="Times,serif" font-size="9.00">1200</text>
</g>
<!-- &#45;19&#45;&gt;1200 -->
<g id="edge68" class="edge">
<title>&#45;19&#45;&gt;1200</title>
<path fill="none" stroke="green" stroke-width="0.33" d="M594.95,-157C695.25,-154.63 1295.55,-139.41 1371.76,-113.07 1373.7,-112.41 1375.62,-111.59 1377.5,-110.67"/>
<polygon fill="green" stroke="green" stroke-width="0.33" points="1379.26,-113.7 1386.13,-105.63 1375.73,-107.66 1379.26,-113.7"/>
</g>
<!-- &#45;19&#45;&gt;599 -->
<g id="edge58" class="edge">
<title>&#45;19&#45;&gt;599</title>
<path fill="none" stroke="green" stroke-width="0.35" d="M595.1,-156.96C691.39,-154.46 1242.24,-139.06 1311.76,-113.07 1313.96,-112.25 1316.13,-111.21 1318.24,-110.03"/>
<polygon fill="green" stroke="green" stroke-width="0.35" points="1320.17,-112.95 1326.51,-104.46 1316.26,-107.14 1320.17,-112.95"/>
</g>
<!-- &#45;20 -->
<g id="node20" class="node">
<title>&#45;20</title>
<polygon fill="lightgray" stroke="black" points="1887.76,-167.57 1859.76,-167.57 1859.76,-149.07 1887.76,-149.07 1887.76,-167.57"/>
<text text-anchor="middle" x="1873.76" y="-155.02" font-family="Times,serif" font-size="9.00">&#45;20</text>
</g>
<!-- &#45;20&#45;&gt;0 -->
<g id="edge2" class="edge">
<title>&#45;20&#45;&gt;0</title>
<path fill="none" stroke="red" stroke-width="0.5" d="M1859.39,-156.99C1702.86,-153.28 320.89,-120.41 313.76,-113.07 298.87,-97.75 301.55,-82.53 313.76,-64.99 338.26,-29.83 390.73,-19.59 422.25,-16.64"/>
<polygon fill="red" stroke="red" stroke-width="0.5" points="422.36,-20.14 432.07,-15.91 421.84,-13.16 422.36,-20.14"/>
</g>
<!-- &#45;20&#45;&gt;2 -->
<g id="edge32" class="edge">
<title>&#45;20&#45;&gt;2</title>
<path fill="none" stroke="green" stroke-width="0.37" d="M1881.36,-148.79C1896.27,-131.01 1926.05,-89.6 1903.76,-64.99 1871.65,-29.54 1526.84,-18.48 1429.95,-16.06"/>
<polygon fill="green" stroke="green" stroke-width="0.37" points="1430.29,-12.57 1420.21,-15.82 1430.12,-19.56 1430.29,-12.57"/>
</g>
<!-- &#45;20&#45;&gt;748 -->
<g id="edge61" class="edge">
<title>&#45;20&#45;&gt;748</title>
<path fill="none" stroke="red" stroke-width="0.45" d="M1873.76,-148.8C1873.76,-141.66 1873.76,-131.02 1873.76,-120.74"/>
<polygon fill="red" stroke="red" stroke-width="0.45" points="1877.26,-121 1873.76,-111 1870.26,-121 1877.26,-121"/>
</g>
<!-- &#45;21 -->
<g id="node21" class="node">
<title>&#45;21</title>
<polygon fill="lightgray" stroke="black" points="756.76,-98.28 728.76,-98.28 728.76,-79.78 756.76,-79.78 756.76,-98.28"/>
<text text-anchor="middle" x="742.76" y="-85.73" font-family="Times,serif" font-size="9.00">&#45;21</text>
</g>
<!-- &#45;21&#45;&gt;0 -->
<g id="edge40" class="edge">
<title>&#45;21&#45;&gt;0</title>
<path fill="none" stroke="green" stroke-width="0.19" d="M736.45,-79.49C732.28,-74.48 726.37,-68.46 719.76,-64.99 636.98,-21.56 522.72,-15.57 472.79,-15.18"/>
<polygon fill="green" stroke="green" stroke-width="0.19" points="472.9,-11.68 462.9,-15.18 472.9,-18.68 472.9,-11.68"/>
</g>
<!-- &#45;21&#45;&gt;1 -->
<g id="edge1" class="edge">
<title>&#45;21&#45;&gt;1</title>
<path fill="none" stroke="green" stroke-width="0.84" d="M750.54,-79.59C754.86,-75.08 760.42,-69.53 765.76,-64.99 781.13,-51.93 799.78,-38.7 813.81,-29.2"/>
<polygon fill="green" stroke="green" stroke-width="0.84" points="815.67,-32.17 822.05,-23.71 811.79,-26.35 815.67,-32.17"/>
</g>
<!-- &#45;21&#45;&gt;2 -->
<g id="edge33" class="edge">
<title>&#45;21&#45;&gt;2</title>
<path fill="none" stroke="red" stroke-width="0.35" d="M748.59,-79.71C752.73,-74.51 758.78,-68.21 765.76,-64.99 877.78,-13.37 1274.98,-14.04 1379.44,-15.14"/>
<polygon fill="red" stroke="red" stroke-width="0.35" points="1379.36,-18.64 1389.4,-15.26 1379.44,-11.64 1379.36,-18.64"/>
</g>
<!-- &#45;22 -->
<g id="node22" class="node">
<title>&#45;22</title>
<polygon fill="lightgray" stroke="black" points="484.76,-98.28 456.76,-98.28 456.76,-79.78 484.76,-79.78 484.76,-98.28"/>
<text text-anchor="middle" x="470.76" y="-85.73" font-family="Times,serif" font-size="9.00">&#45;22</text>
</g>
<!-- &#45;22&#45;&gt;0 -->
<g id="edge44" class="edge">
<title>&#45;22&#45;&gt;0</title>
<path fill="none" stroke="red" stroke-width="1.1" d="M468.04,-79.43C464.93,-69.63 459.72,-53.22 455.37,-39.47"/>
<polygon fill="red" stroke="red" stroke-width="1.1" points="458.83,-38.82 452.47,-30.35 452.16,-40.94 458.83,-38.82"/>
</g>
<!-- &#45;22&#45;&gt;1 -->
<g id="edge50" class="edge">
<title>&#45;22&#45;&gt;1</title>
<path fill="none" stroke="red" stroke-width="0.43" d="M477.03,-79.41C481.19,-74.36 487.1,-68.34 493.76,-64.99 549.47,-37.03 740.46,-21.79 809.56,-17.09"/>
<polygon fill="red" stroke="red" stroke-width="0.43" points="809.53,-20.6 819.27,-16.45 809.06,-13.62 809.53,-20.6"/>
</g>
<!-- &#45;23 -->
<g id="node23" class="node">
<title>&#45;23</title>
<polygon fill="lightgray" stroke="black" points="530.76,-98.28 502.76,-98.28 502.76,-79.78 530.76,-79.78 530.76,-98.28"/>
<text text-anchor="middle" x="516.76" y="-85.73" font-family="Times,serif" font-size="9.00">&#45;23</text>
</g>
<!-- &#45;23&#45;&gt;0 -->
<g id="edge19" class="edge">
<title>&#45;23&#45;&gt;0</title>
<path fill="none" stroke="green" stroke-width="0.51" d="M508.58,-79.43C497.73,-68.03 478.35,-47.65 464.38,-32.96"/>
<polygon fill="green" stroke="green" stroke-width="0.51" points="467.22,-30.87 457.79,-26.04 462.15,-35.7 467.22,-30.87"/>
</g>
<!-- &#45;23&#45;&gt;1 -->
<g id="edge34" class="edge">
<title>&#45;23&#45;&gt;1</title>
<path fill="none" stroke="green" stroke-width="0.16" d="M523.06,-79.46C527.23,-74.43 533.13,-68.41 539.76,-64.99 630.89,-17.98 756.95,-14.04 809.83,-14.7"/>
<polygon fill="green" stroke="green" stroke-width="0.16" points="809.66,-18.2 819.72,-14.89 809.79,-11.2 809.66,-18.2"/>
</g>
<!-- &#45;24 -->
<g id="node24" class="node">
<title>&#45;24</title>
<polygon fill="lightgray" stroke="black" points="1975.76,-167.57 1947.76,-167.57 1947.76,-149.07 1975.76,-149.07 1975.76,-167.57"/>
<text text-anchor="middle" x="1961.76" y="-155.02" font-family="Times,serif" font-size="9.00">&#45;24</text>
</g>
<!-- &#45;25 -->
<g id="node25" class="node">
<title>&#45;25</title>
<polygon fill="lightgray" stroke="black" points="1650.76,-98.28 1622.76,-98.28 1622.76,-79.78 1650.76,-79.78 1650.76,-98.28"/>
<text text-anchor="middle" x="1636.76" y="-85.73" font-family="Times,serif" font-size="9.00">&#45;25</text>
</g>
<!-- &#45;25&#45;&gt;2 -->
<g id="edge52" class="edge">
<title>&#45;25&#45;&gt;2</title>
<path fill="none" stroke="red" stroke-width="0.11" d="M1630.39,-79.61C1626.19,-74.64 1620.28,-68.63 1613.76,-64.99 1553.23,-31.18 1470.36,-20.37 1429.55,-16.99"/>
<polygon fill="red" stroke="red" stroke-width="0.11" points="1429.83,-13.5 1419.59,-16.25 1429.31,-20.48 1429.83,-13.5"/>
</g>
<!-- &#45;26 -->
<g id="node26" class="node">
<title>&#45;26</title>
<polygon fill="lightgray" stroke="black" points="1696.76,-98.28 1668.76,-98.28 1668.76,-79.78 1696.76,-79.78 1696.76,-98.28"/>
<text text-anchor="middle" x="1682.76" y="-85.73" font-family="Times,serif" font-size="9.00">&#45;26</text>
</g>
<!-- &#45;26&#45;&gt;2 -->
<g id="edge22" class="edge">
<title>&#45;26&#45;&gt;2</title>
<path fill="none" stroke="red" stroke-width="0.2" d="M1676.44,-79.52C1672.26,-74.51 1666.35,-68.5 1659.76,-64.99 1583.1,-24.2 1477.49,-16.77 1429.86,-15.59"/>
<polygon fill="red" stroke="red" stroke-width="0.2" points="1429.93,-12.09 1419.87,-15.42 1429.81,-19.09 1429.93,-12.09"/>
</g>
<!-- &#45;27 -->
<g id="node27" class="node">
<title>&#45;27</title>
<polygon fill="lightgray" stroke="black" points="1256.76,-98.28 1228.76,-98.28 1228.76,-79.78 1256.76,-79.78 1256.76,-98.28"/>
<text text-anchor="middle" x="1242.76" y="-85.73" font-family="Times,serif" font-size="9.00">&#45;27</text>
</g>
<!-- &#45;27&#45;&gt;1 -->
<g id="edge11" class="edge">
<title>&#45;27&#45;&gt;1</title>
<path fill="none" stroke="green" stroke-width="0.32" stroke-dasharray="1,5" d="M1236.52,-79.37C1232.36,-74.31 1226.46,-68.28 1219.76,-64.99 1155.77,-33.52 934.46,-20.26 859.68,-16.6"/>
<polygon fill="green" stroke="green" stroke-width="0.32" points="860,-13.12 849.85,-16.14 859.67,-20.11 860,-13.12"/>
</g>
<!-- &#45;27&#45;&gt;2 -->
<g id="edge12" class="edge">
<title>&#45;27&#45;&gt;2</title>
<path fill="none" stroke="green" stroke-width="0.78" d="M1249.68,-79.41C1253.9,-74.62 1259.65,-68.86 1265.76,-64.99 1302.1,-42 1350.55,-27.88 1379.61,-20.88"/>
<polygon fill="green" stroke="green" stroke-width="0.78" points="1380.31,-24.31 1389.27,-18.65 1378.74,-17.49 1380.31,-24.31"/>
</g>
<!-- &#45;28 -->
<g id="node28" class="node">
<title>&#45;28</title>
<polygon fill="lightgray" stroke="black" points="140.76,-98.28 112.76,-98.28 112.76,-79.78 140.76,-79.78 140.76,-98.28"/>
<text text-anchor="middle" x="126.76" y="-85.73" font-family="Times,serif" font-size="9.00">&#45;28</text>
</g>
<!-- &#45;28&#45;&gt;0 -->
<g id="edge39" class="edge">
<title>&#45;28&#45;&gt;0</title>
<path fill="none" stroke="green" stroke-width="0.41" d="M133.06,-79.46C137.22,-74.43 143.13,-68.41 149.76,-64.99 241.64,-17.69 368.63,-13.88 422.25,-14.64"/>
<polygon fill="green" stroke="green" stroke-width="0.41" points="422.12,-18.13 432.19,-14.85 422.27,-11.14 422.12,-18.13"/>
</g>
<!-- &#45;29 -->
<g id="node29" class="node">
<title>&#45;29</title>
<polygon fill="lightgray" stroke="black" points="802.76,-98.28 774.76,-98.28 774.76,-79.78 802.76,-79.78 802.76,-98.28"/>
<text text-anchor="middle" x="788.76" y="-85.73" font-family="Times,serif" font-size="9.00">&#45;29</text>
</g>
<!-- &#45;29&#45;&gt;0 -->
<g id="edge46" class="edge">
<title>&#45;29&#45;&gt;0</title>
<path fill="none" stroke="red" stroke-width="0.22" stroke-dasharray="1,5" d="M782.48,-79.43C778.32,-74.39 772.41,-68.37 765.76,-64.99 714.21,-38.78 538.07,-22.59 472.57,-17.36"/>
<polygon fill="red" stroke="red" stroke-width="0.22" points="472.93,-13.88 462.69,-16.59 472.38,-20.86 472.93,-13.88"/>
</g>
<!-- &#45;29&#45;&gt;2 -->
<g id="edge9" class="edge">
<title>&#45;29&#45;&gt;2</title>
<path fill="none" stroke="red" stroke-width="0.23" d="M794.59,-79.73C798.74,-74.53 804.79,-68.23 811.76,-64.99 915.07,-17.01 1280.36,-14.97 1379.68,-15.32"/>
<polygon fill="red" stroke="red" stroke-width="0.23" points="1379.58,-18.82 1389.6,-15.37 1379.62,-11.82 1379.58,-18.82"/>
</g>
<!-- &#45;30 -->
<g id="node30" class="node">
<title>&#45;30</title>
<polygon fill="lightgray" stroke="black" points="186.76,-98.28 158.76,-98.28 158.76,-79.78 186.76,-79.78 186.76,-98.28"/>
<text text-anchor="middle" x="172.76" y="-85.73" font-family="Times,serif" font-size="9.00">&#45;30</text>
</g>
<!-- &#45;30&#45;&gt;0 -->
<g id="edge53" class="edge">
<title>&#45;30&#45;&gt;0</title>
<path fill="none" stroke="green" stroke-dasharray="1,5" d="M179.09,-79.52C183.27,-74.52 189.18,-68.5 195.76,-64.99 270.69,-25.01 373.63,-17.13 421.42,-15.71"/>
<polygon fill="green" stroke="green" points="421.41,-19.21 431.34,-15.49 421.26,-12.21 421.41,-19.21"/>
</g>
<!-- &#45;31 -->
<g id="node31" class="node">
<title>&#45;31</title>
<polygon fill="lightgray" stroke="black" points="576.76,-98.28 548.76,-98.28 548.76,-79.78 576.76,-79.78 576.76,-98.28"/>
<text text-anchor="middle" x="562.76" y="-85.73" font-family="Times,serif" font-size="9.00">&#45;31</text>
</g>
<!-- &#45;31&#45;&gt;0 -->
<g id="edge4" class="edge">
<title>&#45;31&#45;&gt;0</title>
<path fill="none" stroke="green" stroke-width="1.1" d="M555.21,-79.31C550.96,-74.71 545.39,-69.18 539.76,-64.99 518.22,-48.95 490.81,-34.9 471.53,-25.91"/>
<polygon fill="green" stroke="green" stroke-width="1.1" points="473.04,-22.75 462.49,-21.8 470.14,-29.12 473.04,-22.75"/>
</g>
<!-- &#45;31&#45;&gt;1 -->
<g id="edge51" class="edge">
<title>&#45;31&#45;&gt;1</title>
<path fill="none" stroke="green" stroke-width="0.55" d="M569.09,-79.53C573.28,-74.53 579.19,-68.51 585.76,-64.99 660.1,-25.22 762.37,-17.25 809.33,-15.76"/>
<polygon fill="green" stroke="green" stroke-width="0.55" points="809.27,-19.26 819.18,-15.53 809.1,-12.27 809.27,-19.26"/>
</g>
<!-- &#45;32 -->
<g id="node32" class="node">
<title>&#45;32</title>
<polygon fill="lightgray" stroke="black" points="1742.76,-98.28 1714.76,-98.28 1714.76,-79.78 1742.76,-79.78 1742.76,-98.28"/>
<text text-anchor="middle" x="1728.76" y="-85.73" font-family="Times,serif" font-size="9.00">&#45;32</text>
</g>
<!-- &#45;32&#45;&gt;2 -->
<g id="edge36" class="edge">
<title>&#45;32&#45;&gt;2</title>
<path fill="none" stroke="green" stroke-width="0.35" d="M1722.47,-79.45C1718.31,-74.42 1712.4,-68.4 1705.76,-64.99 1657.33,-40.1 1492.47,-23.26 1429.49,-17.6"/>
<polygon fill="green" stroke="green" stroke-width="0.35" points="1430.1,-14.14 1419.83,-16.75 1429.48,-21.11 1430.1,-14.14"/>
</g>
<!-- &#45;33 -->
<g id="node33" class="node">
<title>&#45;33</title>
<polygon fill="lightgray" stroke="black" points="1302.76,-98.28 1274.76,-98.28 1274.76,-79.78 1302.76,-79.78 1302.76,-98.28"/>
<text text-anchor="middle" x="1288.76" y="-85.73" font-family="Times,serif" font-size="9.00">&#45;33</text>
</g>
<!-- &#45;33&#45;&gt;1 -->
<g id="edge45" class="edge">
<title>&#45;33&#45;&gt;1</title>
<path fill="none" stroke="red" stroke-width="0.9" d="M1282.53,-79.34C1278.39,-74.26 1272.48,-68.24 1265.76,-64.99 1193.36,-29.99 941.87,-18.94 860.43,-16.24"/>
<polygon fill="red" stroke="red" stroke-width="0.9" points="860.74,-12.75 850.63,-15.93 860.52,-19.74 860.74,-12.75"/>
</g>
<!-- &#45;33&#45;&gt;2 -->
<g id="edge48" class="edge">
<title>&#45;33&#45;&gt;2</title>
<path fill="none" stroke="green" stroke-width="1.07" d="M1296.31,-79.3C1300.56,-74.7 1306.13,-69.16 1311.76,-64.99 1333.63,-48.79 1361.5,-34.7 1381,-25.74"/>
<polygon fill="green" stroke="green" stroke-width="1.07" points="1382.23,-29.03 1389.93,-21.75 1379.37,-22.64 1382.23,-29.03"/>
</g>
<!-- &#45;34 -->
<g id="node34" class="node">
<title>&#45;34</title>
<polygon fill="lightgray" stroke="black" points="848.76,-98.28 820.76,-98.28 820.76,-79.78 848.76,-79.78 848.76,-98.28"/>
<text text-anchor="middle" x="834.76" y="-85.73" font-family="Times,serif" font-size="9.00">&#45;34</text>
</g>
<!-- &#45;34&#45;&gt;0 -->
<g id="edge23" class="edge">
<title>&#45;34&#45;&gt;0</title>
<path fill="none" stroke="red" stroke-width="0.41" d="M828.51,-79.39C824.35,-74.33 818.45,-68.31 811.76,-64.99 751.71,-35.18 544.77,-20.95 472.73,-16.82"/>
<polygon fill="red" stroke="red" stroke-width="0.41" points="473.17,-13.34 462.99,-16.27 472.78,-20.33 473.17,-13.34"/>
</g>
<!-- &#45;34&#45;&gt;2 -->
<g id="edge55" class="edge">
<title>&#45;34&#45;&gt;2</title>
<path fill="none" stroke="red" stroke-width="0.85" d="M840.6,-79.74C844.75,-74.55 850.8,-68.25 857.76,-64.99 951.96,-20.85 1282.93,-16 1378.65,-15.53"/>
<polygon fill="red" stroke="red" stroke-width="0.85" points="1378.57,-19.03 1388.56,-15.49 1378.55,-12.03 1378.57,-19.03"/>
</g>
<!-- &#45;35 -->
<g id="node35" class="node">
<title>&#45;35</title>
<polygon fill="lightgray" stroke="black" points="1788.76,-98.28 1760.76,-98.28 1760.76,-79.78 1788.76,-79.78 1788.76,-98.28"/>
<text text-anchor="middle" x="1774.76" y="-85.73" font-family="Times,serif" font-size="9.00">&#45;35</text>
</g>
<!-- &#45;35&#45;&gt;2 -->
<g id="edge20" class="edge">
<title>&#45;35&#45;&gt;2</title>
<path fill="none" stroke="red" stroke-width="0.3" d="M1768.5,-79.4C1764.34,-74.35 1758.44,-68.33 1751.76,-64.99 1694.81,-36.49 1499.03,-21.51 1429.5,-16.99"/>
<polygon fill="red" stroke="red" stroke-width="0.3" points="1430.12,-13.52 1419.92,-16.38 1429.68,-20.51 1430.12,-13.52"/>
</g>
<!-- &#45;36 -->
<g id="node36" class="node">
<title>&#45;36</title>
<polygon fill="lightgray" stroke="black" points="894.76,-98.28 866.76,-98.28 866.76,-79.78 894.76,-79.78 894.76,-98.28"/>
<text text-anchor="middle" x="880.76" y="-85.73" font-family="Times,serif" font-size="9.00">&#45;36</text>
</g>
<!-- &#45;36&#45;&gt;0 -->
<g id="edge26" class="edge">
<title>&#45;36&#45;&gt;0</title>
<path fill="none" stroke="red" stroke-width="0.15" d="M874.52,-79.35C870.38,-74.28 864.47,-68.26 857.76,-64.99 788.97,-31.48 549.84,-19.44 472.27,-16.37"/>
<polygon fill="red" stroke="red" stroke-width="0.15" points="472.78,-12.88 462.65,-16 472.51,-19.88 472.78,-12.88"/>
</g>
<!-- &#45;36&#45;&gt;2 -->
<g id="edge15" class="edge">
<title>&#45;36&#45;&gt;2</title>
<path fill="none" stroke="red" stroke-width="0.74" d="M886.98,-79.3C891.12,-74.21 897.02,-68.19 903.76,-64.99 989.29,-24.48 1288.6,-17.09 1378.83,-15.77"/>
<polygon fill="red" stroke="red" stroke-width="0.74" points="1378.83,-19.27 1388.78,-15.64 1378.74,-12.27 1378.83,-19.27"/>
</g>
<!-- &#45;37 -->
<g id="node37" class="node">
<title>&#45;37</title>
<polygon fill="lightgray" stroke="black" points="622.76,-98.28 594.76,-98.28 594.76,-79.78 622.76,-79.78 622.76,-98.28"/>
<text text-anchor="middle" x="608.76" y="-85.73" font-family="Times,serif" font-size="9.00">&#45;37</text>
</g>
<!-- &#45;37&#45;&gt;0 -->
<g id="edge49" class="edge">
<title>&#45;37&#45;&gt;0</title>
<path fill="none" stroke="green" stroke-width="0.26" d="M601.85,-79.42C597.62,-74.63 591.87,-68.87 585.76,-64.99 549.36,-41.9 500.73,-27.7 471.98,-20.73"/>
<polygon fill="green" stroke="green" stroke-width="0.26" points="472.91,-17.36 462.38,-18.5 471.33,-24.17 472.91,-17.36"/>
</g>
<!-- &#45;37&#45;&gt;1 -->
<g id="edge35" class="edge">
<title>&#45;37&#45;&gt;1</title>
<path fill="none" stroke="green" stroke-width="0.6" d="M615.15,-79.63C619.35,-74.66 625.26,-68.65 631.76,-64.99 689.88,-32.27 769.22,-21.02 809.33,-17.28"/>
<polygon fill="green" stroke="green" stroke-width="0.6" points="809.43,-20.78 819.1,-16.45 808.84,-13.81 809.43,-20.78"/>
</g>
<!-- &#45;38 -->
<g id="node38" class="node">
<title>&#45;38</title>
<polygon fill="lightgray" stroke="black" points="2021.76,-167.57 1993.76,-167.57 1993.76,-149.07 2021.76,-149.07 2021.76,-167.57"/>
<text text-anchor="middle" x="2007.76" y="-155.02" font-family="Times,serif" font-size="9.00">&#45;38</text>
</g>
<!-- &#45;39 -->
<g id="node39" class="node">
<title>&#45;39</title>
<polygon fill="lightgray" stroke="black" points="1834.76,-98.28 1806.76,-98.28 1806.76,-79.78 1834.76,-79.78 1834.76,-98.28"/>
<text text-anchor="middle" x="1820.76" y="-85.73" font-family="Times,serif" font-size="9.00">&#45;39</text>
</g>
<!-- &#45;39&#45;&gt;2 -->
<g id="edge54" class="edge">
<title>&#45;39&#45;&gt;2</title>
<path fill="none" stroke="red" stroke-width="0.13" d="M1814.52,-79.36C1810.37,-74.3 1804.46,-68.28 1797.76,-64.99 1732.29,-32.89 1505.6,-20.01 1429.73,-16.53"/>
<polygon fill="red" stroke="red" stroke-width="0.13" points="1430,-13.04 1419.86,-16.1 1429.69,-20.03 1430,-13.04"/>
</g>
<!-- &#45;40 -->
<g id="node40" class="node">
<title>&#45;40</title>
<polygon fill="lightgray" stroke="black" points="940.76,-98.28 912.76,-98.28 912.76,-79.78 940.76,-79.78 940.76,-98.28"/>
<text text-anchor="middle" x="926.76" y="-85.73" font-family="Times,serif" font-size="9.00">&#45;40</text>
</g>
<!-- &#45;40&#45;&gt;0 -->
<g id="edge60" class="edge">
<title>&#45;40&#45;&gt;0</title>
<path fill="none" stroke="red" stroke-width="0.95" stroke-dasharray="1,5" d="M920.54,-79.32C916.4,-74.24 910.49,-68.22 903.76,-64.99 826.85,-28.1 559.32,-18.29 474.08,-16.07"/>
<polygon fill="red" stroke="red" stroke-width="0.95" points="474.17,-12.57 464.08,-15.83 474,-19.57 474.17,-12.57"/>
</g>
<!-- &#45;40&#45;&gt;1 -->
<g id="edge38" class="edge">
<title>&#45;40&#45;&gt;1</title>
<path fill="none" stroke="red" stroke-width="0.54" stroke-dasharray="1,5" d="M918.99,-79.59C914.67,-75.08 909.11,-69.53 903.76,-64.99 888.25,-51.81 869.39,-38.44 855.31,-28.93"/>
<polygon fill="red" stroke="red" stroke-width="0.54" points="857.36,-26.09 847.1,-23.46 853.48,-31.91 857.36,-26.09"/>
</g>
<!-- &#45;40&#45;&gt;2 -->
<g id="edge56" class="edge">
<title>&#45;40&#45;&gt;2</title>
<path fill="none" stroke="red" stroke-width="1.1" d="M932.99,-79.32C937.13,-74.24 943.04,-68.22 949.76,-64.99 1026.5,-28.17 1293.45,-18.32 1378.51,-16.08"/>
<polygon fill="red" stroke="red" stroke-width="1.1" points="1378.33,-19.58 1388.24,-15.84 1378.16,-12.59 1378.33,-19.58"/>
</g>
<!-- &#45;41 -->
<g id="node41" class="node">
<title>&#45;41</title>
<polygon fill="lightgray" stroke="black" points="2067.76,-167.57 2039.76,-167.57 2039.76,-149.07 2067.76,-149.07 2067.76,-167.57"/>
<text text-anchor="middle" x="2053.76" y="-155.02" font-family="Times,serif" font-size="9.00">&#45;41</text>
</g>
<!-- 963&#45;&gt;1 -->
<g id="edge67" class="edge">
<title>963&#45;&gt;1</title>
<path fill="none" stroke="green" stroke-width="0.23" d="M1094.76,-74.38C1090.21,-70.86 1085.02,-67.39 1079.76,-64.99 1004.42,-30.7 905.31,-20.03 859.7,-16.82"/>
<polygon fill="green" stroke="green" stroke-width="0.23" points="860.1,-13.34 849.9,-16.19 859.66,-20.32 860.1,-13.34"/>
</g>
<!-- 748&#45;&gt;2 -->
<g id="edge62" class="edge">
<title>748&#45;&gt;2</title>
<path fill="none" stroke="green" stroke-width="0.74" d="M1858.89,-74.08C1854.34,-70.55 1849.12,-67.15 1843.76,-64.99 1767.75,-34.31 1512.6,-20.36 1430.47,-16.59"/>
<polygon fill="green" stroke="green" stroke-width="0.74" points="1430.71,-13.1 1420.56,-16.15 1430.39,-20.09 1430.71,-13.1"/>
</g>
<!-- 944&#45;&gt;0 -->
<g id="edge65" class="edge">
<title>944&#45;&gt;0</title>
<path fill="none" stroke="green" stroke-width="0.32" d="M88.69,-74.19C93.23,-70.66 98.44,-67.24 103.76,-64.99 215.57,-17.86 363.99,-14.23 422.51,-14.85"/>
<polygon fill="green" stroke="green" stroke-width="0.32" points="422.43,-18.34 432.49,-15 422.54,-11.35 422.43,-18.34"/>
</g>
<!-- 1200&#45;&gt;2 -->
<g id="edge69" class="edge">
<title>1200&#45;&gt;2</title>
<path fill="none" stroke="green" stroke-width="0.82" d="M1404.76,-64.68C1404.76,-56.87 1404.76,-48.14 1404.76,-40.23"/>
<polygon fill="green" stroke="green" stroke-width="0.82" points="1408.26,-40.32 1404.76,-30.32 1401.26,-40.32 1408.26,-40.32"/>
</g>
<!-- 599&#45;&gt;2 -->
<g id="edge59" class="edge">
<title>599&#45;&gt;2</title>
<path fill="none" stroke="red" stroke-width="1.06" stroke-dasharray="1,5" d="M1355.12,-72.65C1364.7,-61.62 1377.67,-46.69 1387.95,-34.86"/>
<polygon fill="red" stroke="red" stroke-width="1.06" points="1390.53,-37.22 1394.45,-27.38 1385.25,-32.63 1390.53,-37.22"/>
</g>
</g>
</svg>
