<?xml version="1.0" encoding="UTF-8" standalone="no"?>
<!DOCTYPE svg PUBLIC "-//W3C//DTD SVG 1.1//EN"
 "http://www.w3.org/Graphics/SVG/1.1/DTD/svg11.dtd">
<!-- Generated by graphviz version 11.0.0 (20240428.1522)
 -->
<!-- Pages: 1 -->
<svg width="2070pt" height="91pt"
 viewBox="0.00 0.00 2070.00 91.49" xmlns="http://www.w3.org/2000/svg" xmlns:xlink="http://www.w3.org/1999/xlink">
<g id="graph0" class="graph" transform="scale(1 1) rotate(0) translate(4 87.49)">
<polygon fill="white" stroke="none" points="-4,4 -4,-87.49 2066,-87.49 2066,4 -4,4"/>
<!-- &#45;1 -->
<g id="node1" class="node">
<title>&#45;1</title>
<polygon fill="lightgray" stroke="black" points="479.75,-83.49 456.25,-83.49 456.25,-64.99 479.75,-64.99 479.75,-83.49"/>
<text text-anchor="middle" x="468" y="-70.94" font-family="Times,serif" font-size="9.00">&#45;1</text>
</g>
<!-- 0 -->
<g id="node47" class="node">
<title>0</title>
<ellipse fill="lightblue" stroke="black" cx="554" cy="-14.5" rx="14.5" ry="14.5"/>
<text text-anchor="middle" x="554" y="-11.2" font-family="Times,serif" font-size="9.00">0</text>
</g>
<!-- &#45;1&#45;&gt;0 -->
<g id="edge41" class="edge">
<title>&#45;1&#45;&gt;0</title>
<path fill="none" stroke="green" stroke-width="0.16" d="M479.96,-65.21C493.95,-55.82 517.33,-40.12 534.08,-28.87"/>
<polygon fill="green" stroke="green" stroke-width="0.16" points="535.59,-32.07 541.94,-23.59 531.69,-26.26 535.59,-32.07"/>
</g>
<!-- 1 -->
<g id="node48" class="node">
<title>1</title>
<ellipse fill="lightblue" stroke="black" cx="963" cy="-14.5" rx="14.5" ry="14.5"/>
<text text-anchor="middle" x="963" y="-11.2" font-family="Times,serif" font-size="9.00">1</text>
</g>
<!-- &#45;1&#45;&gt;1 -->
<g id="edge5" class="edge">
<title>&#45;1&#45;&gt;1</title>
<path fill="none" stroke="red" stroke-width="0.51" d="M479.81,-67.96C482.76,-66.82 485.96,-65.73 489,-64.99 656.9,-24.05 866.36,-16.97 937.79,-15.75"/>
<polygon fill="red" stroke="red" stroke-width="0.51" points="937.69,-19.25 947.64,-15.6 937.59,-12.25 937.69,-19.25"/>
</g>
<!-- 2 -->
<g id="node49" class="node">
<title>2</title>
<ellipse fill="lightblue" stroke="black" cx="1010" cy="-14.5" rx="14.5" ry="14.5"/>
<text text-anchor="middle" x="1010" y="-11.2" font-family="Times,serif" font-size="9.00">2</text>
</g>
<!-- &#45;1&#45;&gt;2 -->
<g id="edge53" class="edge">
<title>&#45;1&#45;&gt;2</title>
<path fill="none" stroke="red" stroke-width="0.31" d="M480.24,-67.72C483.07,-66.65 486.1,-65.65 489,-64.99 704.97,-15.94 773.93,-92.8 986,-28.99 987.05,-28.67 988.11,-28.31 989.16,-27.9"/>
<polygon fill="red" stroke="red" stroke-width="0.31" points="990.39,-31.19 997.84,-23.66 987.32,-24.9 990.39,-31.19"/>
</g>
<!-- &#45;2 -->
<g id="node2" class="node">
<title>&#45;2</title>
<polygon fill="lightgray" stroke="black" points="1157.75,-83.49 1134.25,-83.49 1134.25,-64.99 1157.75,-64.99 1157.75,-83.49"/>
<text text-anchor="middle" x="1146" y="-70.94" font-family="Times,serif" font-size="9.00">&#45;2</text>
</g>
<!-- &#45;2&#45;&gt;1 -->
<g id="edge29" class="edge">
<title>&#45;2&#45;&gt;1</title>
<path fill="none" stroke="red" stroke-width="0.39" stroke-dasharray="1,5" d="M1134.1,-68.28C1131.15,-67.13 1127.98,-65.96 1125,-64.99 1064.73,-45.37 1045.78,-52.72 987,-28.99 986.11,-28.63 985.21,-28.24 984.31,-27.84"/>
<polygon fill="red" stroke="red" stroke-width="0.39" points="985.92,-24.73 975.43,-23.26 982.71,-30.95 985.92,-24.73"/>
</g>
<!-- &#45;3 -->
<g id="node3" class="node">
<title>&#45;3</title>
<polygon fill="lightgray" stroke="black" points="1471.75,-83.49 1448.25,-83.49 1448.25,-64.99 1471.75,-64.99 1471.75,-83.49"/>
<text text-anchor="middle" x="1460" y="-70.94" font-family="Times,serif" font-size="9.00">&#45;3</text>
</g>
<!-- &#45;3&#45;&gt;1 -->
<g id="edge13" class="edge">
<title>&#45;3&#45;&gt;1</title>
<path fill="none" stroke="green" stroke-width="0.22" stroke-dasharray="1,5" d="M1447.76,-67.73C1444.93,-66.66 1441.9,-65.66 1439,-64.99 1242.64,-19.66 1179.77,-87.75 987,-28.99 985.95,-28.67 984.89,-28.3 983.84,-27.89"/>
<polygon fill="green" stroke="green" stroke-width="0.22" points="985.57,-24.84 975.05,-23.58 982.49,-31.13 985.57,-24.84"/>
</g>
<!-- &#45;3&#45;&gt;2 -->
<g id="edge56" class="edge">
<title>&#45;3&#45;&gt;2</title>
<path fill="none" stroke="green" stroke-width="0.16" stroke-dasharray="1,5" d="M1448.18,-67.98C1445.23,-66.84 1442.04,-65.75 1439,-64.99 1288.44,-27.41 1100.91,-18.24 1034.61,-16.11"/>
<polygon fill="green" stroke="green" stroke-width="0.16" points="1035.04,-12.62 1024.94,-15.82 1034.83,-19.62 1035.04,-12.62"/>
</g>
<!-- &#45;4 -->
<g id="node4" class="node">
<title>&#45;4</title>
<polygon fill="lightgray" stroke="black" points="521.75,-83.49 498.25,-83.49 498.25,-64.99 521.75,-64.99 521.75,-83.49"/>
<text text-anchor="middle" x="510" y="-70.94" font-family="Times,serif" font-size="9.00">&#45;4</text>
</g>
<!-- &#45;4&#45;&gt;0 -->
<g id="edge66" class="edge">
<title>&#45;4&#45;&gt;0</title>
<path fill="none" stroke="green" stroke-width="0.32" d="M516.49,-64.72C522.48,-56.86 531.59,-44.9 539.34,-34.74"/>
<polygon fill="green" stroke="green" stroke-width="0.32" points="542.1,-36.89 545.38,-26.81 536.53,-32.64 542.1,-36.89"/>
</g>
<!-- &#45;4&#45;&gt;1 -->
<g id="edge3" class="edge">
<title>&#45;4&#45;&gt;1</title>
<path fill="none" stroke="green" stroke-width="0.14" d="M521.82,-67.98C524.77,-66.84 527.96,-65.75 531,-64.99 682.61,-27.21 871.46,-18.17 938.22,-16.09"/>
<polygon fill="green" stroke="green" stroke-width="0.14" points="938.11,-19.59 948,-15.81 937.91,-12.6 938.11,-19.59"/>
</g>
<!-- &#45;4&#45;&gt;2 -->
<g id="edge59" class="edge">
<title>&#45;4&#45;&gt;2</title>
<path fill="none" stroke="red" stroke-width="0.15" d="M522.24,-67.73C525.07,-66.66 528.1,-65.66 531,-64.99 728.67,-19.41 791.94,-88.09 986,-28.99 987.05,-28.67 988.11,-28.3 989.16,-27.89"/>
<polygon fill="red" stroke="red" stroke-width="0.15" points="990.6,-31.08 998.04,-23.54 987.52,-24.79 990.6,-31.08"/>
</g>
<!-- &#45;5 -->
<g id="node5" class="node">
<title>&#45;5</title>
<polygon fill="lightgray" stroke="black" points="299.75,-83.49 276.25,-83.49 276.25,-64.99 299.75,-64.99 299.75,-83.49"/>
<text text-anchor="middle" x="288" y="-70.94" font-family="Times,serif" font-size="9.00">&#45;5</text>
</g>
<!-- &#45;5&#45;&gt;0 -->
<g id="edge64" class="edge">
<title>&#45;5&#45;&gt;0</title>
<path fill="none" stroke="green" stroke-width="0.22" d="M299.87,-68.16C302.82,-67.02 305.99,-65.88 309,-64.99 388.04,-41.68 484.64,-25.72 529.25,-19.03"/>
<polygon fill="green" stroke="green" stroke-width="0.22" points="529.71,-22.5 539.1,-17.58 528.69,-15.57 529.71,-22.5"/>
</g>
<!-- &#45;5&#45;&gt;1 -->
<g id="edge4" class="edge">
<title>&#45;5&#45;&gt;1</title>
<path fill="none" stroke="green" stroke-width="0.11" d="M300.24,-67.73C303.07,-66.65 306.1,-65.66 309,-64.99 432.28,-36.78 834.05,-20.26 938.17,-16.38"/>
<polygon fill="green" stroke="green" stroke-width="0.11" points="938.05,-19.89 947.92,-16.03 937.8,-12.9 938.05,-19.89"/>
</g>
<!-- &#45;6 -->
<g id="node6" class="node">
<title>&#45;6</title>
<polygon fill="lightgray" stroke="black" points="1199.75,-83.49 1176.25,-83.49 1176.25,-64.99 1199.75,-64.99 1199.75,-83.49"/>
<text text-anchor="middle" x="1188" y="-70.94" font-family="Times,serif" font-size="9.00">&#45;6</text>
</g>
<!-- &#45;6&#45;&gt;1 -->
<g id="edge2" class="edge">
<title>&#45;6&#45;&gt;1</title>
<path fill="none" stroke="green" stroke-width="0.27" d="M1176.13,-68.16C1173.18,-67.01 1170.01,-65.88 1167,-64.99 1088.73,-41.99 1063.5,-57.34 987,-28.99 985.97,-28.61 984.93,-28.19 983.89,-27.73"/>
<polygon fill="green" stroke="green" stroke-width="0.27" points="985.71,-24.73 975.21,-23.32 982.54,-30.97 985.71,-24.73"/>
</g>
<!-- &#45;7 -->
<g id="node7" class="node">
<title>&#45;7</title>
<polygon fill="lightgray" stroke="black" points="1513.75,-83.49 1490.25,-83.49 1490.25,-64.99 1513.75,-64.99 1513.75,-83.49"/>
<text text-anchor="middle" x="1502" y="-70.94" font-family="Times,serif" font-size="9.00">&#45;7</text>
</g>
<!-- &#45;7&#45;&gt;1 -->
<g id="edge44" class="edge">
<title>&#45;7&#45;&gt;1</title>
<path fill="none" stroke="green" stroke-width="0.21" stroke-dasharray="1,5" d="M1489.76,-67.72C1486.93,-66.65 1483.9,-65.65 1481,-64.99 1266.34,-16.19 1197.79,-92.47 987,-28.99 985.95,-28.67 984.89,-28.31 983.84,-27.9"/>
<polygon fill="green" stroke="green" stroke-width="0.21" points="985.55,-24.84 975.03,-23.59 982.48,-31.13 985.55,-24.84"/>
</g>
<!-- &#45;7&#45;&gt;2 -->
<g id="edge42" class="edge">
<title>&#45;7&#45;&gt;2</title>
<path fill="none" stroke="red" stroke-width="0.31" d="M1490.19,-67.96C1487.24,-66.82 1484.04,-65.73 1481,-64.99 1314.2,-24.26 1106.12,-17.04 1035.09,-15.77"/>
<polygon fill="red" stroke="red" stroke-width="0.31" points="1035.42,-12.27 1025.37,-15.62 1035.31,-19.27 1035.42,-12.27"/>
</g>
<!-- &#45;8 -->
<g id="node8" class="node">
<title>&#45;8</title>
<polygon fill="lightgray" stroke="black" points="1785.75,-83.49 1762.25,-83.49 1762.25,-64.99 1785.75,-64.99 1785.75,-83.49"/>
<text text-anchor="middle" x="1774" y="-70.94" font-family="Times,serif" font-size="9.00">&#45;8</text>
</g>
<!-- &#45;9 -->
<g id="node9" class="node">
<title>&#45;9</title>
<polygon fill="lightgray" stroke="black" points="655.75,-83.49 632.25,-83.49 632.25,-64.99 655.75,-64.99 655.75,-83.49"/>
<text text-anchor="middle" x="644" y="-70.94" font-family="Times,serif" font-size="9.00">&#45;9</text>
</g>
<!-- &#45;9&#45;&gt;0 -->
<g id="edge14" class="edge">
<title>&#45;9&#45;&gt;0</title>
<path fill="none" stroke="red" stroke-width="0.69" d="M631.86,-65.45C617.29,-56.1 592.6,-40.26 574.93,-28.93"/>
<polygon fill="red" stroke="red" stroke-width="0.69" points="577.14,-26.18 566.83,-23.73 573.35,-32.07 577.14,-26.18"/>
</g>
<!-- &#45;9&#45;&gt;1 -->
<g id="edge68" class="edge">
<title>&#45;9&#45;&gt;1</title>
<path fill="none" stroke="green" stroke-width="0.12" d="M655.85,-68.09C658.8,-66.94 661.98,-65.83 665,-64.99 764.35,-37.55 886.78,-23.07 938.3,-17.83"/>
<polygon fill="green" stroke="green" stroke-width="0.12" points="938.41,-21.33 948.01,-16.86 937.72,-14.37 938.41,-21.33"/>
</g>
<!-- &#45;9&#45;&gt;2 -->
<g id="edge61" class="edge">
<title>&#45;9&#45;&gt;2</title>
<path fill="none" stroke="red" stroke-width="0.42" d="M655.82,-67.97C658.77,-66.83 661.96,-65.75 665,-64.99 804.34,-30.45 849.37,-73.05 986,-28.99 986.92,-28.7 987.84,-28.36 988.75,-28"/>
<polygon fill="red" stroke="red" stroke-width="0.42" points="990.22,-31.18 997.65,-23.63 987.13,-24.9 990.22,-31.18"/>
</g>
<!-- &#45;10 -->
<g id="node10" class="node">
<title>&#45;10</title>
<polygon fill="lightgray" stroke="black" points="568,-83.49 540,-83.49 540,-64.99 568,-64.99 568,-83.49"/>
<text text-anchor="middle" x="554" y="-70.94" font-family="Times,serif" font-size="9.00">&#45;10</text>
</g>
<!-- &#45;10&#45;&gt;0 -->
<g id="edge18" class="edge">
<title>&#45;10&#45;&gt;0</title>
<path fill="none" stroke="red" stroke-width="0.36" d="M554,-64.72C554,-58.12 554,-48.63 554,-39.74"/>
<polygon fill="red" stroke="red" stroke-width="0.36" points="557.5,-39.98 554,-29.98 550.5,-39.98 557.5,-39.98"/>
</g>
<!-- &#45;10&#45;&gt;2 -->
<g id="edge33" class="edge">
<title>&#45;10&#45;&gt;2</title>
<path fill="none" stroke="red" stroke-width="0.78" stroke-dasharray="1,5" d="M568.44,-67.43C571.24,-66.48 574.18,-65.61 577,-64.99 755.24,-25.86 811.67,-82.92 986,-28.99 986.79,-28.75 987.58,-28.48 988.37,-28.18"/>
<polygon fill="red" stroke="red" stroke-width="0.78" points="989.7,-31.42 997.19,-23.92 986.66,-25.12 989.7,-31.42"/>
</g>
<!-- &#45;11 -->
<g id="node11" class="node">
<title>&#45;11</title>
<polygon fill="lightgray" stroke="black" points="614,-83.49 586,-83.49 586,-64.99 614,-64.99 614,-83.49"/>
<text text-anchor="middle" x="600" y="-70.94" font-family="Times,serif" font-size="9.00">&#45;11</text>
</g>
<!-- &#45;11&#45;&gt;0 -->
<g id="edge23" class="edge">
<title>&#45;11&#45;&gt;0</title>
<path fill="none" stroke="red" stroke-width="0.22" stroke-dasharray="1,5" d="M593.21,-64.72C586.89,-56.78 577.23,-44.66 569.08,-34.43"/>
<polygon fill="red" stroke="red" stroke-width="0.22" points="571.88,-32.33 562.91,-26.69 566.41,-36.69 571.88,-32.33"/>
</g>
<!-- &#45;11&#45;&gt;2 -->
<g id="edge65" class="edge">
<title>&#45;11&#45;&gt;2</title>
<path fill="none" stroke="red" stroke-width="0.22" d="M614.44,-67.45C617.24,-66.5 620.19,-65.63 623,-64.99 781.16,-29.35 831.38,-77.76 986,-28.99 987.05,-28.66 988.1,-28.28 989.15,-27.86"/>
<polygon fill="red" stroke="red" stroke-width="0.22" points="990.51,-31.09 997.93,-23.53 987.42,-24.82 990.51,-31.09"/>
</g>
<!-- &#45;12 -->
<g id="node12" class="node">
<title>&#45;12</title>
<polygon fill="lightgray" stroke="black" points="748,-83.49 720,-83.49 720,-64.99 748,-64.99 748,-83.49"/>
<text text-anchor="middle" x="734" y="-70.94" font-family="Times,serif" font-size="9.00">&#45;12</text>
</g>
<!-- &#45;12&#45;&gt;0 -->
<g id="edge67" class="edge">
<title>&#45;12&#45;&gt;0</title>
<path fill="none" stroke="red" stroke-width="1.1" d="M719.92,-68.09C716.98,-67.05 713.89,-65.97 711,-64.99 664.61,-49.37 610.02,-32.5 578.97,-23.04"/>
<polygon fill="red" stroke="red" stroke-width="1.1" points="580.1,-19.72 569.51,-20.17 578.07,-26.42 580.1,-19.72"/>
</g>
<!-- &#45;12&#45;&gt;1 -->
<g id="edge57" class="edge">
<title>&#45;12&#45;&gt;1</title>
<path fill="none" stroke="red" stroke-width="0.61" d="M748.03,-67.94C750.97,-66.9 754.07,-65.87 757,-64.99 821.64,-45.7 899.39,-28.64 938.29,-20.52"/>
<polygon fill="red" stroke="red" stroke-width="0.61" points="938.63,-24.03 947.71,-18.58 937.21,-17.17 938.63,-24.03"/>
</g>
<!-- &#45;12&#45;&gt;2 -->
<g id="edge39" class="edge">
<title>&#45;12&#45;&gt;2</title>
<path fill="none" stroke="red" stroke-width="0.31" d="M748.47,-67.58C751.27,-66.62 754.21,-65.71 757,-64.99 856.82,-39.49 888.67,-62.78 986,-28.99 987.04,-28.63 988.08,-28.23 989.13,-27.79"/>
<polygon fill="red" stroke="red" stroke-width="0.31" points="990.4,-31.07 997.76,-23.45 987.26,-24.81 990.4,-31.07"/>
</g>
<!-- &#45;13 -->
<g id="node13" class="node">
<title>&#45;13</title>
<polygon fill="lightgray" stroke="black" points="1246,-83.49 1218,-83.49 1218,-64.99 1246,-64.99 1246,-83.49"/>
<text text-anchor="middle" x="1232" y="-70.94" font-family="Times,serif" font-size="9.00">&#45;13</text>
</g>
<!-- &#45;13&#45;&gt;1 -->
<g id="edge8" class="edge">
<title>&#45;13&#45;&gt;1</title>
<path fill="none" stroke="red" stroke-width="1.1" d="M1217.53,-67.59C1214.73,-66.63 1211.79,-65.71 1209,-64.99 1112.22,-40.01 1081.35,-62 987,-28.99 986.35,-28.76 985.7,-28.52 985.05,-28.26"/>
<polygon fill="red" stroke="red" stroke-width="1.1" points="986.83,-25.24 976.31,-23.96 983.74,-31.52 986.83,-25.24"/>
</g>
<!-- &#45;14 -->
<g id="node14" class="node">
<title>&#45;14</title>
<polygon fill="lightgray" stroke="black" points="702,-83.49 674,-83.49 674,-64.99 702,-64.99 702,-83.49"/>
<text text-anchor="middle" x="688" y="-70.94" font-family="Times,serif" font-size="9.00">&#45;14</text>
</g>
<!-- &#45;14&#45;&gt;0 -->
<g id="edge11" class="edge">
<title>&#45;14&#45;&gt;0</title>
<path fill="none" stroke="red" stroke-width="0.48" d="M673.66,-67.06C650.43,-57.05 604.39,-37.21 576.68,-25.27"/>
<polygon fill="red" stroke="red" stroke-width="0.48" points="578.28,-22.15 567.71,-21.4 575.51,-28.57 578.28,-22.15"/>
</g>
<!-- &#45;14&#45;&gt;2 -->
<g id="edge24" class="edge">
<title>&#45;14&#45;&gt;2</title>
<path fill="none" stroke="green" stroke-width="0.24" d="M702.46,-67.53C705.26,-66.57 708.2,-65.67 711,-64.99 830.81,-36.02 869.04,-67.91 986,-28.99 987.04,-28.64 988.09,-28.25 989.14,-27.82"/>
<polygon fill="green" stroke="green" stroke-width="0.24" points="990.49,-31.06 997.88,-23.47 987.37,-24.79 990.49,-31.06"/>
</g>
<!-- &#45;15 -->
<g id="node15" class="node">
<title>&#45;15</title>
<polygon fill="lightgray" stroke="black" points="166,-83.49 138,-83.49 138,-64.99 166,-64.99 166,-83.49"/>
<text text-anchor="middle" x="152" y="-70.94" font-family="Times,serif" font-size="9.00">&#45;15</text>
</g>
<!-- &#45;15&#45;&gt;0 -->
<g id="edge22" class="edge">
<title>&#45;15&#45;&gt;0</title>
<path fill="none" stroke="red" stroke-width="1.1" d="M166.46,-67.52C169.26,-66.57 172.2,-65.67 175,-64.99 305.34,-33.49 466.06,-20.88 527.99,-16.97"/>
<polygon fill="red" stroke="red" stroke-width="1.1" points="527.91,-20.48 537.68,-16.38 527.48,-13.49 527.91,-20.48"/>
</g>
<!-- &#45;16 -->
<g id="node16" class="node">
<title>&#45;16</title>
<polygon fill="lightgray" stroke="black" points="1832,-83.49 1804,-83.49 1804,-64.99 1832,-64.99 1832,-83.49"/>
<text text-anchor="middle" x="1818" y="-70.94" font-family="Times,serif" font-size="9.00">&#45;16</text>
</g>
<!-- &#45;17 -->
<g id="node17" class="node">
<title>&#45;17</title>
<polygon fill="lightgray" stroke="black" points="794,-83.49 766,-83.49 766,-64.99 794,-64.99 794,-83.49"/>
<text text-anchor="middle" x="780" y="-70.94" font-family="Times,serif" font-size="9.00">&#45;17</text>
</g>
<!-- &#45;17&#45;&gt;0 -->
<g id="edge49" class="edge">
<title>&#45;17&#45;&gt;0</title>
<path fill="none" stroke="red" stroke-width="0.38" d="M765.97,-67.94C763.02,-66.91 759.93,-65.87 757,-64.99 693.44,-45.9 617.06,-28.82 578.63,-20.62"/>
<polygon fill="red" stroke="red" stroke-width="0.38" points="579.49,-17.23 568.98,-18.58 578.04,-24.08 579.49,-17.23"/>
</g>
<!-- &#45;17&#45;&gt;1 -->
<g id="edge48" class="edge">
<title>&#45;17&#45;&gt;1</title>
<path fill="none" stroke="red" stroke-width="0.43" stroke-dasharray="1,5" d="M794.08,-68.08C797.02,-67.03 800.1,-65.96 803,-64.99 851.11,-48.93 907.94,-31.78 939.27,-22.48"/>
<polygon fill="red" stroke="red" stroke-width="0.43" points="940.01,-25.91 948.61,-19.71 938.03,-19.2 940.01,-25.91"/>
</g>
<!-- &#45;17&#45;&gt;2 -->
<g id="edge43" class="edge">
<title>&#45;17&#45;&gt;2</title>
<path fill="none" stroke="green" stroke-width="0.86" stroke-dasharray="1,5" d="M794.49,-67.67C797.29,-66.7 800.22,-65.76 803,-64.99 882.9,-42.94 908.23,-57.67 986,-28.99 986.77,-28.71 987.55,-28.4 988.33,-28.07"/>
<polygon fill="green" stroke="green" stroke-width="0.86" points="989.61,-31.34 996.98,-23.73 986.47,-25.09 989.61,-31.34"/>
</g>
<!-- &#45;18 -->
<g id="node18" class="node">
<title>&#45;18</title>
<polygon fill="lightgray" stroke="black" points="1292,-83.49 1264,-83.49 1264,-64.99 1292,-64.99 1292,-83.49"/>
<text text-anchor="middle" x="1278" y="-70.94" font-family="Times,serif" font-size="9.00">&#45;18</text>
</g>
<!-- &#45;18&#45;&gt;1 -->
<g id="edge6" class="edge">
<title>&#45;18&#45;&gt;1</title>
<path fill="none" stroke="green" stroke-width="0.69" d="M1263.54,-67.53C1260.74,-66.58 1257.8,-65.67 1255,-64.99 1138.23,-36.54 1100.97,-67.13 987,-28.99 986.22,-28.73 985.43,-28.44 984.65,-28.13"/>
<polygon fill="green" stroke="green" stroke-width="0.69" points="986.25,-25.02 975.73,-23.76 983.17,-31.31 986.25,-25.02"/>
</g>
<!-- &#45;19 -->
<g id="node19" class="node">
<title>&#45;19</title>
<polygon fill="lightgray" stroke="black" points="978,-83.49 950,-83.49 950,-64.99 978,-64.99 978,-83.49"/>
<text text-anchor="middle" x="964" y="-70.94" font-family="Times,serif" font-size="9.00">&#45;19</text>
</g>
<!-- &#45;19&#45;&gt;0 -->
<g id="edge30" class="edge">
<title>&#45;19&#45;&gt;0</title>
<path fill="none" stroke="red" stroke-width="0.21" d="M949.54,-67.52C946.74,-66.56 943.8,-65.67 941,-64.99 806.49,-32.67 640.28,-20.42 578.57,-16.78"/>
<polygon fill="red" stroke="red" stroke-width="0.21" points="579.11,-13.31 568.93,-16.24 578.72,-20.3 579.11,-13.31"/>
</g>
<!-- &#45;19&#45;&gt;1 -->
<g id="edge27" class="edge">
<title>&#45;19&#45;&gt;1</title>
<path fill="none" stroke="green" stroke-width="0.18" stroke-dasharray="1,5" d="M963.85,-64.72C963.74,-58.05 963.57,-48.42 963.41,-39.45"/>
<polygon fill="green" stroke="green" stroke-width="0.18" points="966.92,-39.63 963.25,-29.69 959.92,-39.75 966.92,-39.63"/>
</g>
<!-- &#45;19&#45;&gt;2 -->
<g id="edge16" class="edge">
<title>&#45;19&#45;&gt;2</title>
<path fill="none" stroke="red" stroke-width="0.49" stroke-dasharray="1,5" d="M970.79,-64.72C977.05,-56.86 986.58,-44.9 994.67,-34.74"/>
<polygon fill="red" stroke="red" stroke-width="0.49" points="997.34,-37.01 1000.83,-27 991.86,-32.64 997.34,-37.01"/>
</g>
<!-- &#45;20 -->
<g id="node20" class="node">
<title>&#45;20</title>
<polygon fill="lightgray" stroke="black" points="1338,-83.49 1310,-83.49 1310,-64.99 1338,-64.99 1338,-83.49"/>
<text text-anchor="middle" x="1324" y="-70.94" font-family="Times,serif" font-size="9.00">&#45;20</text>
</g>
<!-- &#45;20&#45;&gt;1 -->
<g id="edge19" class="edge">
<title>&#45;20&#45;&gt;1</title>
<path fill="none" stroke="green" stroke-width="0.18" d="M1309.55,-67.49C1306.75,-66.54 1303.81,-65.65 1301,-64.99 1164.21,-33.07 1120.64,-72.27 987,-28.99 985.95,-28.65 984.9,-28.27 983.85,-27.84"/>
<polygon fill="green" stroke="green" stroke-width="0.18" points="985.54,-24.77 975.03,-23.47 982.43,-31.04 985.54,-24.77"/>
</g>
<!-- &#45;21 -->
<g id="node21" class="node">
<title>&#45;21</title>
<polygon fill="lightgray" stroke="black" points="212,-83.49 184,-83.49 184,-64.99 212,-64.99 212,-83.49"/>
<text text-anchor="middle" x="198" y="-70.94" font-family="Times,serif" font-size="9.00">&#45;21</text>
</g>
<!-- &#45;21&#45;&gt;0 -->
<g id="edge12" class="edge">
<title>&#45;21&#45;&gt;0</title>
<path fill="none" stroke="red" stroke-width="0.43" d="M212.47,-67.56C215.27,-66.61 218.2,-65.69 221,-64.99 333.96,-36.63 472.83,-22.43 528.83,-17.53"/>
<polygon fill="red" stroke="red" stroke-width="0.43" points="528.88,-21.04 538.55,-16.7 528.29,-14.07 528.88,-21.04"/>
</g>
<!-- &#45;22 -->
<g id="node22" class="node">
<title>&#45;22</title>
<polygon fill="lightgray" stroke="black" points="28,-83.49 0,-83.49 0,-64.99 28,-64.99 28,-83.49"/>
<text text-anchor="middle" x="14" y="-70.94" font-family="Times,serif" font-size="9.00">&#45;22</text>
</g>
<!-- &#45;22&#45;&gt;0 -->
<g id="edge63" class="edge">
<title>&#45;22&#45;&gt;0</title>
<path fill="none" stroke="red" stroke-width="0.32" d="M28.44,-67.45C31.24,-66.5 34.18,-65.62 37,-64.99 222.81,-23.46 453.84,-16.77 529.07,-15.7"/>
<polygon fill="red" stroke="red" stroke-width="0.32" points="528.96,-19.2 538.92,-15.58 528.88,-12.2 528.96,-19.2"/>
</g>
<!-- &#45;23 -->
<g id="node23" class="node">
<title>&#45;23</title>
<polygon fill="lightgray" stroke="black" points="1878,-83.49 1850,-83.49 1850,-64.99 1878,-64.99 1878,-83.49"/>
<text text-anchor="middle" x="1864" y="-70.94" font-family="Times,serif" font-size="9.00">&#45;23</text>
</g>
<!-- &#45;24 -->
<g id="node24" class="node">
<title>&#45;24</title>
<polygon fill="lightgray" stroke="black" points="1560,-83.49 1532,-83.49 1532,-64.99 1560,-64.99 1560,-83.49"/>
<text text-anchor="middle" x="1546" y="-70.94" font-family="Times,serif" font-size="9.00">&#45;24</text>
</g>
<!-- &#45;24&#45;&gt;1 -->
<g id="edge46" class="edge">
<title>&#45;24&#45;&gt;1</title>
<path fill="none" stroke="green" stroke-width="0.81" d="M1531.58,-67.38C1528.77,-66.44 1525.82,-65.58 1523,-64.99 1289.28,-16.22 1215.81,-97.19 987,-28.99 986.21,-28.76 985.42,-28.49 984.63,-28.2"/>
<polygon fill="green" stroke="green" stroke-width="0.81" points="986.38,-25.16 975.85,-24 983.36,-31.47 986.38,-25.16"/>
</g>
<!-- &#45;24&#45;&gt;2 -->
<g id="edge51" class="edge">
<title>&#45;24&#45;&gt;2</title>
<path fill="none" stroke="red" stroke-width="0.19" d="M1531.56,-67.45C1528.76,-66.5 1525.81,-65.62 1523,-64.99 1338.67,-23.71 1109.48,-16.86 1034.78,-15.72"/>
<polygon fill="red" stroke="red" stroke-width="0.19" points="1035.23,-12.23 1025.18,-15.59 1035.14,-19.23 1035.23,-12.23"/>
</g>
<!-- &#45;25 -->
<g id="node25" class="node">
<title>&#45;25</title>
<polygon fill="lightgray" stroke="black" points="346,-83.49 318,-83.49 318,-64.99 346,-64.99 346,-83.49"/>
<text text-anchor="middle" x="332" y="-70.94" font-family="Times,serif" font-size="9.00">&#45;25</text>
</g>
<!-- &#45;25&#45;&gt;0 -->
<g id="edge25" class="edge">
<title>&#45;25&#45;&gt;0</title>
<path fill="none" stroke="green" stroke-width="0.57" d="M346.03,-67.95C348.98,-66.92 352.08,-65.88 355,-64.99 417.07,-46.19 491.56,-29.09 529.37,-20.78"/>
<polygon fill="green" stroke="green" stroke-width="0.57" points="530,-24.23 539.03,-18.68 528.51,-17.39 530,-24.23"/>
</g>
<!-- &#45;25&#45;&gt;1 -->
<g id="edge20" class="edge">
<title>&#45;25&#45;&gt;1</title>
<path fill="none" stroke="red" stroke-width="0.19" d="M346.43,-67.41C349.24,-66.47 352.18,-65.6 355,-64.99 577.41,-16.93 854.76,-14.68 938.17,-15.2"/>
<polygon fill="red" stroke="red" stroke-width="0.19" points="937.89,-18.69 947.92,-15.28 937.95,-11.69 937.89,-18.69"/>
</g>
<!-- &#45;26 -->
<g id="node26" class="node">
<title>&#45;26</title>
<polygon fill="lightgray" stroke="black" points="74,-83.49 46,-83.49 46,-64.99 74,-64.99 74,-83.49"/>
<text text-anchor="middle" x="60" y="-70.94" font-family="Times,serif" font-size="9.00">&#45;26</text>
</g>
<!-- &#45;26&#45;&gt;0 -->
<g id="edge15" class="edge">
<title>&#45;26&#45;&gt;0</title>
<path fill="none" stroke="red" stroke-width="0.67" d="M74.44,-67.47C77.25,-66.52 80.19,-65.63 83,-64.99 250.05,-26.84 457.25,-18 528.53,-16.04"/>
<polygon fill="red" stroke="red" stroke-width="0.67" points="528.21,-19.54 538.12,-15.79 528.04,-12.55 528.21,-19.54"/>
</g>
<!-- &#45;27 -->
<g id="node27" class="node">
<title>&#45;27</title>
<polygon fill="lightgray" stroke="black" points="1744,-83.49 1716,-83.49 1716,-64.99 1744,-64.99 1744,-83.49"/>
<text text-anchor="middle" x="1730" y="-70.94" font-family="Times,serif" font-size="9.00">&#45;27</text>
</g>
<!-- &#45;27&#45;&gt;2 -->
<g id="edge37" class="edge">
<title>&#45;27&#45;&gt;2</title>
<path fill="none" stroke="red" stroke-width="0.14" d="M1715.57,-67.39C1712.77,-66.45 1709.82,-65.59 1707,-64.99 1574.45,-37.06 1142.71,-20.19 1034.68,-16.34"/>
<polygon fill="red" stroke="red" stroke-width="0.14" points="1035.05,-12.85 1024.93,-16 1034.8,-19.85 1035.05,-12.85"/>
</g>
<!-- &#45;28 -->
<g id="node28" class="node">
<title>&#45;28</title>
<polygon fill="lightgray" stroke="black" points="840,-83.49 812,-83.49 812,-64.99 840,-64.99 840,-83.49"/>
<text text-anchor="middle" x="826" y="-70.94" font-family="Times,serif" font-size="9.00">&#45;28</text>
</g>
<!-- &#45;28&#45;&gt;0 -->
<g id="edge21" class="edge">
<title>&#45;28&#45;&gt;0</title>
<path fill="none" stroke="red" stroke-width="0.11" d="M811.5,-67.67C808.71,-66.7 805.78,-65.76 803,-64.99 721.97,-42.54 623.43,-26.06 578.48,-19.13"/>
<polygon fill="red" stroke="red" stroke-width="0.11" points="579.06,-15.67 568.65,-17.63 578.01,-22.59 579.06,-15.67"/>
</g>
<!-- &#45;28&#45;&gt;2 -->
<g id="edge17" class="edge">
<title>&#45;28&#45;&gt;2</title>
<path fill="none" stroke="green" stroke-width="0.28" d="M840.04,-67.98C842.99,-66.94 846.08,-65.9 849,-64.99 909.13,-46.35 927.64,-52.61 986,-28.99 987.02,-28.58 988.05,-28.13 989.08,-27.66"/>
<polygon fill="green" stroke="green" stroke-width="0.28" points="990.45,-30.89 997.72,-23.18 987.23,-24.68 990.45,-30.89"/>
</g>
<!-- &#45;29 -->
<g id="node29" class="node">
<title>&#45;29</title>
<polygon fill="lightgray" stroke="black" points="1924,-83.49 1896,-83.49 1896,-64.99 1924,-64.99 1924,-83.49"/>
<text text-anchor="middle" x="1910" y="-70.94" font-family="Times,serif" font-size="9.00">&#45;29</text>
</g>
<!-- &#45;30 -->
<g id="node30" class="node">
<title>&#45;30</title>
<polygon fill="lightgray" stroke="black" points="1384,-83.49 1356,-83.49 1356,-64.99 1384,-64.99 1384,-83.49"/>
<text text-anchor="middle" x="1370" y="-70.94" font-family="Times,serif" font-size="9.00">&#45;30</text>
</g>
<!-- &#45;30&#45;&gt;1 -->
<g id="edge47" class="edge">
<title>&#45;30&#45;&gt;1</title>
<path fill="none" stroke="green" stroke-width="0.1" stroke-dasharray="1,5" d="M1355.56,-67.46C1352.76,-66.51 1349.81,-65.63 1347,-64.99 1190.15,-29.58 1140.33,-77.43 987,-28.99 985.95,-28.66 984.9,-28.28 983.85,-27.86"/>
<polygon fill="green" stroke="green" stroke-width="0.1" points="985.43,-24.74 974.91,-23.45 982.33,-31.02 985.43,-24.74"/>
</g>
<!-- &#45;30&#45;&gt;2 -->
<g id="edge52" class="edge">
<title>&#45;30&#45;&gt;2</title>
<path fill="none" stroke="green" stroke-width="0.44" d="M1355.53,-67.56C1352.73,-66.6 1349.8,-65.69 1347,-64.99 1232.42,-36.33 1091.48,-22.26 1035.07,-17.46"/>
<polygon fill="green" stroke="green" stroke-width="0.44" points="1035.58,-13.99 1025.32,-16.66 1035,-20.97 1035.58,-13.99"/>
</g>
<!-- &#45;31 -->
<g id="node31" class="node">
<title>&#45;31</title>
<polygon fill="lightgray" stroke="black" points="438,-83.49 410,-83.49 410,-64.99 438,-64.99 438,-83.49"/>
<text text-anchor="middle" x="424" y="-70.94" font-family="Times,serif" font-size="9.00">&#45;31</text>
</g>
<!-- &#45;31&#45;&gt;1 -->
<g id="edge1" class="edge">
<title>&#45;31&#45;&gt;1</title>
<path fill="none" stroke="red" stroke-width="0.29" stroke-dasharray="1,5" d="M438.44,-67.45C441.24,-66.5 444.18,-65.62 447,-64.99 632.45,-23.52 863.04,-16.79 938.12,-15.7"/>
<polygon fill="red" stroke="red" stroke-width="0.29" points="938.04,-19.2 947.99,-15.58 937.95,-12.2 938.04,-19.2"/>
</g>
<!-- &#45;32 -->
<g id="node32" class="node">
<title>&#45;32</title>
<polygon fill="lightgray" stroke="black" points="886,-83.49 858,-83.49 858,-64.99 886,-64.99 886,-83.49"/>
<text text-anchor="middle" x="872" y="-70.94" font-family="Times,serif" font-size="9.00">&#45;32</text>
</g>
<!-- &#45;32&#45;&gt;0 -->
<g id="edge38" class="edge">
<title>&#45;32&#45;&gt;0</title>
<path fill="none" stroke="red" stroke-width="0.16" d="M857.52,-67.61C854.72,-66.64 851.79,-65.72 849,-64.99 750.46,-39.27 629.78,-23.91 578.7,-18.13"/>
<polygon fill="red" stroke="red" stroke-width="0.16" points="579.19,-14.66 568.87,-17.04 578.42,-21.62 579.19,-14.66"/>
</g>
<!-- &#45;32&#45;&gt;2 -->
<g id="edge54" class="edge">
<title>&#45;32&#45;&gt;2</title>
<path fill="none" stroke="green" stroke-width="0.81" stroke-dasharray="1,5" d="M886.36,-67.96C912.66,-58.23 967.57,-37.7 986,-28.99 986.75,-28.64 987.5,-28.27 988.26,-27.9"/>
<polygon fill="green" stroke="green" stroke-width="0.81" points="989.71,-31.09 996.88,-23.28 986.41,-24.91 989.71,-31.09"/>
</g>
<!-- &#45;33 -->
<g id="node33" class="node">
<title>&#45;33</title>
<polygon fill="lightgray" stroke="black" points="392,-83.49 364,-83.49 364,-64.99 392,-64.99 392,-83.49"/>
<text text-anchor="middle" x="378" y="-70.94" font-family="Times,serif" font-size="9.00">&#45;33</text>
</g>
<!-- &#45;33&#45;&gt;0 -->
<g id="edge28" class="edge">
<title>&#45;33&#45;&gt;0</title>
<path fill="none" stroke="green" stroke-width="0.21" stroke-dasharray="1,5" d="M392.09,-68.11C395.02,-67.06 398.11,-65.98 401,-64.99 446.62,-49.44 500.29,-32.35 530.41,-22.87"/>
<polygon fill="green" stroke="green" stroke-width="0.21" points="531.23,-26.29 539.72,-19.95 529.13,-19.61 531.23,-26.29"/>
</g>
<!-- &#45;33&#45;&gt;1 -->
<g id="edge7" class="edge">
<title>&#45;33&#45;&gt;1</title>
<path fill="none" stroke="red" stroke-width="0.51" stroke-dasharray="1,5" d="M392.44,-67.43C395.24,-66.48 398.18,-65.61 401,-64.99 604.8,-20.25 858.57,-15.7 938.03,-15.43"/>
<polygon fill="red" stroke="red" stroke-width="0.51" points="937.69,-18.93 947.69,-15.42 937.68,-11.93 937.69,-18.93"/>
</g>
<!-- &#45;34 -->
<g id="node34" class="node">
<title>&#45;34</title>
<polygon fill="lightgray" stroke="black" points="1116,-83.49 1088,-83.49 1088,-64.99 1116,-64.99 1116,-83.49"/>
<text text-anchor="middle" x="1102" y="-70.94" font-family="Times,serif" font-size="9.00">&#45;34</text>
</g>
<!-- &#45;34&#45;&gt;1 -->
<g id="edge36" class="edge">
<title>&#45;34&#45;&gt;1</title>
<path fill="none" stroke="red" stroke-width="0.36" d="M1087.52,-67.97C1060.98,-58.25 1005.58,-37.73 987,-28.99 986.01,-28.52 985,-28.03 983.98,-27.52"/>
<polygon fill="red" stroke="red" stroke-width="0.36" points="985.98,-24.62 975.51,-22.97 982.67,-30.79 985.98,-24.62"/>
</g>
<!-- &#45;35 -->
<g id="node35" class="node">
<title>&#45;35</title>
<polygon fill="lightgray" stroke="black" points="1970,-83.49 1942,-83.49 1942,-64.99 1970,-64.99 1970,-83.49"/>
<text text-anchor="middle" x="1956" y="-70.94" font-family="Times,serif" font-size="9.00">&#45;35</text>
</g>
<!-- &#45;36 -->
<g id="node36" class="node">
<title>&#45;36</title>
<polygon fill="lightgray" stroke="black" points="1430,-83.49 1402,-83.49 1402,-64.99 1430,-64.99 1430,-83.49"/>
<text text-anchor="middle" x="1416" y="-70.94" font-family="Times,serif" font-size="9.00">&#45;36</text>
</g>
<!-- &#45;36&#45;&gt;1 -->
<g id="edge45" class="edge">
<title>&#45;36&#45;&gt;1</title>
<path fill="none" stroke="green" stroke-width="0.49" stroke-dasharray="1,5" d="M1401.56,-67.43C1398.76,-66.48 1395.82,-65.61 1393,-64.99 1216.07,-26.09 1160.04,-82.59 987,-28.99 986.08,-28.71 985.16,-28.38 984.24,-28.03"/>
<polygon fill="green" stroke="green" stroke-width="0.49" points="985.94,-24.97 975.42,-23.73 982.88,-31.26 985.94,-24.97"/>
</g>
<!-- &#45;36&#45;&gt;2 -->
<g id="edge35" class="edge">
<title>&#45;36&#45;&gt;2</title>
<path fill="none" stroke="green" stroke-width="1.1" d="M1401.54,-67.52C1398.74,-66.57 1395.8,-65.67 1393,-64.99 1261.28,-33.25 1098.87,-20.78 1036.29,-16.93"/>
<polygon fill="green" stroke="green" stroke-width="1.1" points="1036.67,-13.45 1026.48,-16.36 1036.26,-20.44 1036.67,-13.45"/>
</g>
<!-- &#45;37 -->
<g id="node37" class="node">
<title>&#45;37</title>
<polygon fill="lightgray" stroke="black" points="1606,-83.49 1578,-83.49 1578,-64.99 1606,-64.99 1606,-83.49"/>
<text text-anchor="middle" x="1592" y="-70.94" font-family="Times,serif" font-size="9.00">&#45;37</text>
</g>
<!-- &#45;37&#45;&gt;2 -->
<g id="edge40" class="edge">
<title>&#45;37&#45;&gt;2</title>
<path fill="none" stroke="red" stroke-width="0.44" d="M1577.56,-67.43C1574.76,-66.48 1571.82,-65.61 1569,-64.99 1366.75,-20.54 1115,-15.78 1035.37,-15.45"/>
<polygon fill="red" stroke="red" stroke-width="0.44" points="1035.57,-11.95 1025.56,-15.43 1035.55,-18.95 1035.57,-11.95"/>
</g>
<!-- &#45;38 -->
<g id="node38" class="node">
<title>&#45;38</title>
<polygon fill="lightgray" stroke="black" points="1652,-83.49 1624,-83.49 1624,-64.99 1652,-64.99 1652,-83.49"/>
<text text-anchor="middle" x="1638" y="-70.94" font-family="Times,serif" font-size="9.00">&#45;38</text>
</g>
<!-- &#45;38&#45;&gt;2 -->
<g id="edge9" class="edge">
<title>&#45;38&#45;&gt;2</title>
<path fill="none" stroke="red" stroke-width="0.5" d="M1623.57,-67.42C1620.76,-66.47 1617.82,-65.6 1615,-64.99 1394.37,-17.27 1119.4,-14.76 1035.48,-15.21"/>
<polygon fill="red" stroke="red" stroke-width="0.5" points="1035.46,-11.71 1025.49,-15.28 1035.51,-18.71 1035.46,-11.71"/>
</g>
<!-- &#45;39 -->
<g id="node39" class="node">
<title>&#45;39</title>
<polygon fill="lightgray" stroke="black" points="932,-83.49 904,-83.49 904,-64.99 932,-64.99 932,-83.49"/>
<text text-anchor="middle" x="918" y="-70.94" font-family="Times,serif" font-size="9.00">&#45;39</text>
</g>
<!-- &#45;39&#45;&gt;0 -->
<g id="edge58" class="edge">
<title>&#45;39&#45;&gt;0</title>
<path fill="none" stroke="green" stroke-width="0.79" d="M903.53,-67.56C900.73,-66.6 897.8,-65.69 895,-64.99 779.3,-36.15 637.05,-22.22 579.73,-17.46"/>
<polygon fill="green" stroke="green" stroke-width="0.79" points="580.27,-13.99 570.02,-16.68 579.71,-20.97 580.27,-13.99"/>
</g>
<!-- &#45;39&#45;&gt;2 -->
<g id="edge32" class="edge">
<title>&#45;39&#45;&gt;2</title>
<path fill="none" stroke="red" stroke-width="0.79" d="M931.57,-64.72C946.53,-55.33 970.8,-40.1 988.38,-29.07"/>
<polygon fill="red" stroke="red" stroke-width="0.79" points="990.21,-32.05 996.82,-23.77 986.49,-26.12 990.21,-32.05"/>
</g>
<!-- &#45;40 -->
<g id="node40" class="node">
<title>&#45;40</title>
<polygon fill="lightgray" stroke="black" points="258,-83.49 230,-83.49 230,-64.99 258,-64.99 258,-83.49"/>
<text text-anchor="middle" x="244" y="-70.94" font-family="Times,serif" font-size="9.00">&#45;40</text>
</g>
<!-- &#45;40&#45;&gt;0 -->
<g id="edge50" class="edge">
<title>&#45;40&#45;&gt;0</title>
<path fill="none" stroke="green" stroke-width="0.18" stroke-dasharray="1,5" d="M258.48,-67.62C261.28,-66.65 264.21,-65.73 267,-64.99 362.46,-39.84 479.24,-24.27 529.3,-18.29"/>
<polygon fill="green" stroke="green" stroke-width="0.18" points="529.68,-21.77 539.2,-17.13 528.86,-14.81 529.68,-21.77"/>
</g>
<!-- &#45;40&#45;&gt;1 -->
<g id="edge55" class="edge">
<title>&#45;40&#45;&gt;1</title>
<path fill="none" stroke="red" stroke-width="0.23" d="M258.43,-67.39C261.23,-66.45 264.18,-65.59 267,-64.99 399.23,-37.13 829.61,-20.24 938.03,-16.36"/>
<polygon fill="red" stroke="red" stroke-width="0.23" points="938.09,-19.86 947.96,-16.01 937.84,-12.86 938.09,-19.86"/>
</g>
<!-- &#45;41 -->
<g id="node41" class="node">
<title>&#45;41</title>
<polygon fill="lightgray" stroke="black" points="1070,-83.49 1042,-83.49 1042,-64.99 1070,-64.99 1070,-83.49"/>
<text text-anchor="middle" x="1056" y="-70.94" font-family="Times,serif" font-size="9.00">&#45;41</text>
</g>
<!-- &#45;41&#45;&gt;0 -->
<g id="edge69" class="edge">
<title>&#45;41&#45;&gt;0</title>
<path fill="none" stroke="red" stroke-width="0.33" d="M1041.56,-67.46C1038.75,-66.51 1035.81,-65.63 1033,-64.99 862.38,-26.18 650.56,-17.75 578.97,-15.96"/>
<polygon fill="red" stroke="red" stroke-width="0.33" points="579.28,-12.47 569.21,-15.74 579.12,-19.47 579.28,-12.47"/>
</g>
<!-- &#45;41&#45;&gt;1 -->
<g id="edge10" class="edge">
<title>&#45;41&#45;&gt;1</title>
<path fill="none" stroke="green" stroke-width="0.13" d="M1042.28,-64.72C1026.79,-55.1 1001.43,-39.36 983.57,-28.27"/>
<polygon fill="green" stroke="green" stroke-width="0.13" points="985.52,-25.36 975.18,-23.06 981.83,-31.3 985.52,-25.36"/>
</g>
<!-- &#45;41&#45;&gt;2 -->
<g id="edge34" class="edge">
<title>&#45;41&#45;&gt;2</title>
<path fill="none" stroke="red" stroke-width="0.34" d="M1049.21,-64.72C1042.89,-56.78 1033.23,-44.66 1025.08,-34.43"/>
<polygon fill="red" stroke="red" stroke-width="0.34" points="1027.99,-32.46 1019.02,-26.82 1022.51,-36.82 1027.99,-32.46"/>
</g>
<!-- &#45;42 -->
<g id="node42" class="node">
<title>&#45;42</title>
<polygon fill="lightgray" stroke="black" points="120,-83.49 92,-83.49 92,-64.99 120,-64.99 120,-83.49"/>
<text text-anchor="middle" x="106" y="-70.94" font-family="Times,serif" font-size="9.00">&#45;42</text>
</g>
<!-- &#45;42&#45;&gt;0 -->
<g id="edge60" class="edge">
<title>&#45;42&#45;&gt;0</title>
<path fill="none" stroke="red" stroke-width="1.1" d="M120.45,-67.49C123.25,-66.54 126.19,-65.65 129,-64.99 277.12,-30.28 460.25,-19.43 527.58,-16.48"/>
<polygon fill="red" stroke="red" stroke-width="1.1" points="527.6,-19.98 537.45,-16.07 527.31,-12.99 527.6,-19.98"/>
</g>
<!-- &#45;43 -->
<g id="node43" class="node">
<title>&#45;43</title>
<polygon fill="lightgray" stroke="black" points="2016,-83.49 1988,-83.49 1988,-64.99 2016,-64.99 2016,-83.49"/>
<text text-anchor="middle" x="2002" y="-70.94" font-family="Times,serif" font-size="9.00">&#45;43</text>
</g>
<!-- &#45;44 -->
<g id="node44" class="node">
<title>&#45;44</title>
<polygon fill="lightgray" stroke="black" points="1024,-83.49 996,-83.49 996,-64.99 1024,-64.99 1024,-83.49"/>
<text text-anchor="middle" x="1010" y="-70.94" font-family="Times,serif" font-size="9.00">&#45;44</text>
</g>
<!-- &#45;44&#45;&gt;0 -->
<g id="edge62" class="edge">
<title>&#45;44&#45;&gt;0</title>
<path fill="none" stroke="green" stroke-width="0.1" d="M995.55,-67.49C992.75,-66.54 989.81,-65.65 987,-64.99 834.49,-29.42 645.54,-19.02 578.78,-16.33"/>
<polygon fill="green" stroke="green" stroke-width="0.1" points="579.07,-12.84 568.94,-15.96 578.8,-19.84 579.07,-12.84"/>
</g>
<!-- &#45;44&#45;&gt;2 -->
<g id="edge26" class="edge">
<title>&#45;44&#45;&gt;2</title>
<path fill="none" stroke="green" stroke-width="0.1" d="M1010,-64.72C1010,-58.05 1010,-48.42 1010,-39.45"/>
<polygon fill="green" stroke="green" stroke-width="0.1" points="1013.5,-39.58 1010,-29.58 1006.5,-39.58 1013.5,-39.58"/>
</g>
<!-- &#45;45 -->
<g id="node45" class="node">
<title>&#45;45</title>
<polygon fill="lightgray" stroke="black" points="1698,-83.49 1670,-83.49 1670,-64.99 1698,-64.99 1698,-83.49"/>
<text text-anchor="middle" x="1684" y="-70.94" font-family="Times,serif" font-size="9.00">&#45;45</text>
</g>
<!-- &#45;45&#45;&gt;2 -->
<g id="edge31" class="edge">
<title>&#45;45&#45;&gt;2</title>
<path fill="none" stroke="green" stroke-width="0.34" d="M1669.57,-67.4C1666.77,-66.46 1663.82,-65.59 1661,-64.99 1421.52,-13.91 1122.63,-13.79 1035.14,-15"/>
<polygon fill="green" stroke="green" stroke-width="0.34" points="1035.34,-11.5 1025.39,-15.16 1035.45,-18.5 1035.34,-11.5"/>
</g>
<!-- &#45;46 -->
<g id="node46" class="node">
<title>&#45;46</title>
<polygon fill="lightgray" stroke="black" points="2062,-83.49 2034,-83.49 2034,-64.99 2062,-64.99 2062,-83.49"/>
<text text-anchor="middle" x="2048" y="-70.94" font-family="Times,serif" font-size="9.00">&#45;46</text>
</g>
</g>
</svg>
